<?xml version="1.0" encoding="UTF-8"?>
<!DOCTYPE svg PUBLIC "-//W3C//DTD SVG 1.1//EN" "http://www.w3.org/Graphics/SVG/1.1/DTD/svg11.dtd">
<!-- Creator: CorelDRAW 2020 (64-Bit) -->
<svg xmlns="http://www.w3.org/2000/svg" xml:space="preserve" width="1949px" height="791px" version="1.1" shape-rendering="geometricPrecision" text-rendering="geometricPrecision" image-rendering="optimizeQuality" fill-rule="evenodd" clip-rule="evenodd"
viewBox="0 0 1949 791.41"
 xmlns:xlink="http://www.w3.org/1999/xlink"
 xmlns:xodm="http://www.corel.com/coreldraw/odm/2003">
 <g id="Capa_x0020_1">
  <metadata id="CorelCorpID_0Corel-Layer"/>
  <g id="Logo">
   <path id="Lavanderia_x0020_Industrial"  fill-rule="nonzero" d="M828.87 725.9c-4.81,1.92 -9.62,6.73 -9.62,9.75 0,3.57 4.95,3.16 7.56,-0.82 2.61,-3.99 8.93,-5.36 15.94,-3.58 4.94,1.38 5.36,1.93 5.36,6.19 0,4.39 -0.42,4.81 -5.09,5.49 -21.84,3.57 -25.14,5.64 -25.14,15.94 0,5.36 0.55,6.73 3.43,8.66 4.81,3.16 18,2.88 23.5,-0.42l4.39 -2.61 1.52 3.44c0.96,1.92 2.47,3.16 3.84,2.88 1.93,-0.41 2.2,-2.47 1.93,-17.17 -0.41,-21.16 -1.1,-23.77 -7.15,-26.79 -5.08,-2.75 -14.97,-3.16 -20.47,-0.96l0 0zm18.96 27.61c-0.41,5.22 -0.96,6.19 -5.91,8.93 -6.46,3.71 -10.03,3.99 -14.15,0.97 -3.16,-2.2 -3.85,-6.6 -1.79,-10.04 0.69,-1.09 5.22,-2.74 10.03,-3.7 12.92,-2.48 12.37,-2.62 11.82,3.84l0 0zm-46.03 -27.61c-3.02,1.09 -3.16,1.64 -3.16,22.39 0,12.78 0.55,21.57 1.37,22.12 0.83,0.41 2.62,0.41 4.13,0 2.61,-0.82 2.74,-2.06 2.74,-22.67 0,-11.95 -0.41,-22.12 -0.96,-22.39 -0.68,-0.42 -2.47,-0.14 -4.12,0.55l0 0zm-20.06 0.82c-1.92,2.06 -2.88,2.2 -5.08,0.69 -6.6,-4.13 -6.87,-3.16 -6.87,20.33l0 21.99 3.29 0c2.89,0 3.3,-0.83 4.13,-7.29 0.41,-3.84 0.82,-11.26 0.82,-16.35 0,-8.24 0.41,-9.48 3.71,-12.09 2.61,-2.06 4.67,-2.61 7.7,-1.92 3.7,0.82 3.84,0.55 3.43,-3.16 -0.27,-3.16 -1.1,-3.99 -4.53,-4.26 -2.61,-0.28 -5.09,0.55 -6.6,2.06zm-74.74 -0.28c-7.01,3.03 -9.49,10.86 -5.36,16.63 1.1,1.37 7.42,4.4 14.15,6.73 12.91,4.4 15.11,6.87 10.58,11.82 -1.51,1.65 -4.12,2.61 -7.28,2.61 -7.7,0 -10.31,-1.24 -12.78,-5.63 -3.02,-5.23 -6.6,-5.36 -6.6,0 0,2.88 1.24,5.08 4.4,7.69 4.12,3.44 5.08,3.71 14.56,3.16 9.07,-0.41 10.58,-0.82 13.47,-4.26 3.98,-4.67 4.53,-12.78 0.96,-15.66 -3.71,-2.75 -9.89,-5.22 -18,-7.28 -7.97,-1.79 -9.62,-3.71 -7.14,-8.11 1.23,-2.34 2.75,-2.89 8.93,-2.89 6.04,0 7.69,0.55 8.93,2.75 0.82,1.65 2.89,2.75 4.81,2.75 3.98,0 4.12,-0.27 1.37,-5.36 -3.29,-6.59 -15.66,-9.07 -25,-4.94l0 -0.01zm-24.74 -1.09c-1.37,0.55 -1.78,5.22 -1.78,17.58l0 16.9 -4.67 2.2c-6.05,2.89 -9.48,2.75 -13.33,-0.41 -3.02,-2.47 -3.3,-3.71 -3.85,-19.37 -0.41,-16.08 -0.55,-16.63 -3.43,-16.22 -1.52,0.28 -2.75,0.83 -2.48,1.38 0.14,0.68 0.28,8.79 0.28,18.27 0,16.9 0.13,17.31 3.57,20.61 4.53,4.26 15.11,4.81 20.61,1.1 3.43,-2.2 3.71,-2.2 6.05,0.96 4.53,6.05 5.49,2.34 5.49,-20.47 0,-19.65 -0.27,-21.85 -2.33,-22.4 -1.38,-0.41 -3.3,-0.41 -4.13,-0.13l0 0zm-115.83 1.09c-1.92,2.34 -6.87,2.75 -6.87,0.69 0,-0.82 -1.23,-1.37 -2.74,-1.37 -2.61,0 -2.75,0.96 -2.75,21.84 0,22.68 0.27,23.91 5.91,22.4 2.06,-0.55 2.33,-2.61 2.33,-18.96 0,-15.66 0.28,-18.27 2.06,-17.59 1.1,0.55 2.06,0.14 2.06,-0.69 0,-0.96 2.75,-1.51 6.87,-1.51 8.8,0 9.62,1.51 9.62,19.51 0,16.77 0.83,20.34 4.26,20.34 2.48,0 2.61,-1.24 2.61,-19.65 -0.13,-21.02 -0.69,-23.08 -7.42,-25.69 -5.49,-2.06 -14.01,-1.65 -15.94,0.68l0 0zm-102.5 -0.13c-4.12,1.78 -10.16,8.1 -10.16,10.58 0,2.47 6.73,1.23 8.24,-1.38 3.44,-6.46 18.96,-6.87 21.85,-0.68 2.88,6.32 2.06,7 -10.99,9.34 -14.57,2.75 -17.18,4.12 -19.24,10.17 -1.92,5.77 0.27,11.68 5.08,13.87 4.95,2.2 16.49,1.93 21.58,-0.68 4.12,-2.2 4.39,-2.2 6.18,0.68 1.1,1.52 3.02,2.89 4.26,2.89 2.2,0 2.33,-1.79 1.92,-18.96 -0.69,-20.34 -1.79,-24.05 -8.1,-26.38 -4.95,-1.93 -15.67,-1.65 -20.62,0.55l0 0zm21.71 23.08c2.06,6.18 -9.89,17.04 -17.31,15.66 -5.36,-1.1 -7.69,-3.29 -7.69,-7 0,-4.26 2.88,-6.32 12.09,-8.25 10.3,-2.33 12.36,-2.33 12.91,-0.41l0 0zm-50.15 -24.18c-1.65,1.65 -1.1,44.24 0.55,45.34 3.85,2.34 4.67,-3.02 3.99,-24.04 -0.69,-19.79 -1.65,-24.19 -4.54,-21.3zm-33.11 0.27c-0.41,0.69 -0.83,10.72 -0.96,22.4l-0.14 21.16 3.44 0.41 3.29 0.41 0.69 -16.62c0.55,-15.67 0.69,-16.63 3.98,-18.96 1.79,-1.24 5.23,-2.34 7.42,-2.34 3.44,0 4.13,-0.55 4.13,-3.43 0,-4.4 -5.09,-5.36 -11.27,-1.93 -4.26,2.2 -4.67,2.2 -7.15,0 -1.37,-1.37 -3.02,-1.78 -3.43,-1.1l0 0zm-39.98 0.83c-8.25,3.71 -10.86,8.24 -11.41,19.37 -0.55,8.52 -0.14,10.99 2.47,15.53 3.85,6.87 7.42,8.52 18.69,8.52 8.52,0 9.34,-0.28 13.88,-4.81 4.67,-4.67 5.49,-8.8 2.2,-9.9 -0.96,-0.41 -3.85,1.65 -6.6,4.26 -3.98,3.99 -5.91,4.95 -10.3,4.95 -6.6,0 -11.96,-4.4 -13.19,-10.72l-0.83 -4.39 7.28 -0.14c4.13,-0.14 8.66,0 10.03,0.14 1.52,0.13 5.91,-0.14 9.9,-0.69l7.28 -0.83 -0.83 -5.08c-2.06,-14.15 -15.8,-21.85 -28.58,-16.21l0.01 0zm18.96 9.34c4.81,6.32 2.61,7.97 -10.72,7.97 -13.88,0 -15.8,-1.79 -9.48,-8.38 3.43,-3.57 4.67,-4.12 10.72,-3.71 5.49,0.27 7.28,1.1 9.48,4.12zm-126.69 -9.34c-1.1,1.23 -1.51,8.65 -1.23,22.94l0.41 21.16 3.43 0c3.03,0 3.44,-0.55 3.44,-5.49 0.41,-24.32 0.69,-26.66 3.85,-30.37 2.61,-2.88 4.39,-3.71 9.2,-3.71 9.21,0 10.03,1.92 9.21,21.99 -0.55,17.45 0,19.37 5.22,17.45 1.65,-0.69 2.06,-4.26 2.06,-19.79 0,-18.82 0,-19.1 -3.57,-21.85 -5.36,-4.12 -12.37,-5.08 -19.51,-2.47 -5.36,2.06 -6.19,2.06 -8.11,0.27 -2.47,-2.47 -2.47,-2.47 -4.4,-0.13zm-42.18 0c-4.39,1.92 -8.79,7.01 -8.79,10.03 0,3.16 5.63,1.92 9.48,-2.2 3.43,-3.57 4.4,-3.99 10.58,-3.3 7.01,0.69 10.17,3.16 10.17,7.56 0,2.88 -4.81,5.08 -12.78,5.91 -13.05,1.23 -18.82,5.9 -18.82,14.97 0,7.15 4.94,10.45 15.66,10.45 5.22,-0.14 9.34,-0.83 10.99,-2.06 3.57,-2.75 4.4,-2.62 7.56,0.82 3.3,3.57 7.97,2.61 6.18,-1.24 -0.69,-1.23 -1.37,-9.2 -1.51,-17.45 -0.28,-8.38 -0.83,-16.48 -1.1,-18.27 -1.51,-6.32 -18,-9.34 -27.62,-5.22l0 0zm21.16 25c0.83,5.64 -2.06,9.76 -8.66,12.37 -5.9,2.2 -6.73,2.2 -10.02,0.27 -4.54,-2.74 -6.19,-7 -3.85,-10.16 1.65,-2.2 15.66,-6.19 20.06,-5.64 1.1,0.14 2.2,1.52 2.47,3.16zm-75.16 -25.69c-1.65,1.1 -0.55,5.08 6.32,23.08 7.42,19.51 8.52,21.71 11.41,21.71 2.88,0 4.12,-2.2 11.27,-19.92 10.3,-25.42 10.03,-24.18 7.14,-25.28 -3.43,-1.38 -5.08,0.96 -10.85,15.66 -2.75,7.15 -5.77,14.57 -6.46,16.49 -1.24,3.02 -1.93,1.65 -7.01,-13.05 -7.28,-21.03 -7.56,-21.3 -11.82,-18.69zm-39.43 0.69c-4.4,1.92 -8.79,7.01 -8.79,10.03 0,1.1 1.65,1.78 4.12,1.78 3.16,0 4.12,-0.68 4.12,-2.61 0,-3.43 6.6,-6.04 12.78,-4.94 6.04,1.1 8.93,3.29 9.48,6.87 0.55,3.43 -4.12,5.77 -13.74,6.73 -9.76,1.1 -15.25,4.12 -17.59,9.89 -1.92,4.54 -1.78,5.22 0.83,9.48 1.51,2.48 3.71,4.95 4.94,5.36 4.12,1.51 16.77,0.83 20.61,-1.23 3.57,-1.79 4.12,-1.79 7.01,0.96 3.57,3.29 8.24,2.47 6.46,-1.38 -0.55,-1.23 -1.24,-9.2 -1.51,-17.45 -0.28,-8.38 -0.83,-16.49 -1.24,-18.27 -1.37,-6.32 -17.86,-9.35 -27.48,-5.22l0 0zm21.71 22.12c0.41,0.41 0.14,3.3 -0.55,6.18 -1.1,4.4 -2.47,5.91 -7.14,8.25 -7.29,3.43 -9.21,3.43 -13.75,-0.14 -3.98,-3.16 -4.67,-6.87 -1.51,-9.48 3.3,-2.75 21.3,-6.46 22.95,-4.81zm607.86 -35.73c-1.24,1.24 -2.2,4.4 -2.2,6.87 0,3.17 -0.96,5.36 -2.89,6.6 -2.74,2.06 -2.74,2.06 -0.13,3.98 2.47,1.65 2.88,3.85 3.29,18.55 0.42,18.97 1.24,20.48 10.03,21.3 4.81,0.41 5.5,0 5.91,-2.61 0.28,-2.34 -0.41,-3.16 -3.71,-3.85l-4.26 -0.96 0 -15.66 0 -15.67 3.44 0c1.92,0 3.85,-0.96 4.4,-2.06 0.96,-2.88 -0.14,-3.84 -4.26,-3.84 -3.16,0 -3.44,-0.55 -3.85,-6.87 -0.41,-7.42 -2.2,-9.21 -5.77,-5.78l0 0zm120.09 22.95c0,15.39 -0.42,29.27 -0.83,31.05 -0.82,2.61 -0.41,3.03 3.44,3.03l4.25 0 0 -30.92 0 -30.91 -3.43 0 -3.43 0 0 27.75zm-69.53 -25.69c-1.37,3.43 0.55,6.18 4.26,6.18 2.89,0 3.43,-0.69 3.43,-4.12 0,-3.44 -0.54,-4.12 -3.43,-4.12 -1.92,0 -3.85,0.96 -4.26,2.06l0 0zm-268.48 28.71c0,30.51 0,30.78 3.02,31.47 1.65,0.41 3.44,0.55 4.13,0.14 0.54,-0.42 1.09,-14.57 1.09,-31.61l0 -30.77 -3.98 0 -4.12 0 -0.14 30.77 0 0zm-96.04 -26.79c-3.71,5.09 -3.57,7.01 0.27,7.01 2.61,0 10.58,-7.7 10.58,-10.17 0,-0.55 -1.78,-0.82 -3.98,-0.82 -2.89,0 -4.95,1.1 -6.87,3.98zm-102.64 -2.06c-0.41,1.1 -0.41,5.22 0,9.07 0.96,8.79 0.41,9.89 -4.4,7.42 -7.83,-4.12 -18.96,-0.96 -23.63,6.59 -2.06,3.3 -2.75,6.87 -2.75,13.74 0,10.72 2.61,17.45 8.25,20.89 4.53,2.61 15.39,2.88 19.23,0.55 2.06,-1.38 3.03,-1.24 5.36,0.82 1.51,1.38 3.44,2.06 4.12,1.51 0.96,-0.55 1.51,-11.4 1.51,-31.74l0 -30.77 -3.43 0c-1.92,0 -3.85,0.82 -4.26,1.92zm-4.67 22.81c7.56,3.98 7.01,26.52 -0.83,29.95 -8.24,3.85 -15.8,0 -18.13,-9.34 -1.51,-6.32 0,-15.8 3.43,-19.51 2.48,-2.75 11.27,-3.3 15.53,-1.1l0 0zm-264.22 -23.77c-0.55,0.41 -0.96,14.42 -0.96,30.91l0 29.96 19.92 0 19.92 0 0 -3.44 0 -3.43 -15.8 0 -15.8 0 0 -27.48 0 -27.48 -3.16 0c-1.79,0 -3.71,0.41 -4.12,0.96l0 0zm571.72 -1.38c-2.06,0.55 -2.47,2.2 -2.47,9.9 0,5.08 -0.42,9.61 -0.83,10.16 -0.55,0.42 -2.61,0 -4.81,-1.09 -8.38,-4.4 -18.13,-1.52 -23.08,6.87 -4.4,7.55 -4.12,21.57 0.69,28.57 1.92,2.89 5.08,5.78 6.87,6.6 5.36,1.92 14.29,1.51 16.62,-0.96 1.93,-1.93 2.48,-1.79 5.36,0.82 1.65,1.65 3.71,2.61 4.53,2.06 1.79,-0.96 2.2,-61.96 0.56,-62.93 -0.69,-0.27 -2.2,-0.27 -3.44,0l0 0zm-10.72 24.32c5.22,1.1 8.25,7.42 8.25,17.18 0,6.73 -0.55,8.79 -3.03,11.13 -11.26,10.44 -24.45,-0.96 -21.16,-18.28 1.1,-5.9 6.87,-12.36 10.17,-11.54 1.24,0.41 3.85,1.1 5.77,1.51l0 0z"/>
   <path id="La_x0020_Antigueña"  fill-rule="nonzero" d="M1382.32 607.18c0.96,0.41 2.2,0.28 2.61,-0.14 0.55,-0.41 -0.28,-0.82 -1.79,-0.68 -1.51,0 -1.92,0.41 -0.82,0.82zm368.71 -4.67c-0.62,0 -3.54,0 -3.97,0.26 1.35,-0.07 2.68,-0.16 3.97,-0.26zm59.45 -12.11c0.52,-0.34 0.2,-0.48 -0.85,-0.39l0.85 0.39zm-1632.2 -50.13c-0.41,0.82 0.14,0.96 1.24,0.55 2.47,-0.96 2.88,-1.93 0.96,-1.93 -0.83,0 -1.79,0.55 -2.2,1.38zm628.6 -23.91c-6.87,5.63 -16.62,14.15 -21.7,18.96 -5.09,4.67 -16.9,15.25 -26.38,23.5 -9.49,8.24 -18.14,16.21 -19.38,17.72 -2.33,2.75 -2.06,6.32 0.41,6.32 0.69,0 8.8,-7.01 18,-15.52 21.44,-19.65 63.76,-61.42 62.52,-61.42 -0.55,0 -6.6,4.67 -13.47,10.44l0 0zm-494.64 -9.62c-17.86,4.81 -32.28,16.22 -51.25,40.81 -1.64,2.06 -3.84,4.67 -4.67,5.77 -0.96,0.96 -1.78,2.75 -1.78,3.85 0,1.1 -0.96,2.75 -2.06,3.71 -1.24,0.96 -2.07,2.75 -1.79,3.98 0.14,1.24 -0.41,3.57 -1.38,5.22 -0.96,1.65 -1.37,3.85 -0.96,4.81 0.28,0.96 1.24,4.4 2.06,7.56 2.2,8.52 8.94,12.78 19.93,12.78 11.13,0 20.06,-2.61 37.78,-10.99 18,-8.52 21.02,-8.52 22.12,-0.42 0.97,7.29 2.75,9.35 10.45,11.96 22.67,7.69 43.69,1.51 56.74,-16.63 6.46,-9.07 7.01,-11.4 1.79,-7.42 -18.28,14.02 -29.13,18.83 -40.67,17.59 -12.78,-1.24 -16.21,-9.48 -10.31,-25.28 3.44,-9.48 6.6,-15.25 12.92,-24.18 2.61,-3.58 4.67,-6.87 4.67,-7.29 0,-0.54 3.16,-4.8 6.87,-9.61 6.32,-8.11 8.79,-14.29 5.5,-14.29 -1.79,0 -17.04,13.19 -35.86,31.19 -8.66,8.1 -19.65,18.68 -24.6,23.35 -10.17,9.62 -18.27,13.74 -35.59,18.14 -17.72,4.4 -22.67,3.71 -22.39,-3.57 0.27,-7.83 4.67,-14.7 18.55,-28.58 16.76,-16.63 30.64,-27.21 40.53,-30.91 7.69,-2.89 22.81,-3.72 24.32,-1.38 1.1,1.65 6.18,1.79 6.18,0.14 0,-3.02 -9.89,-9.62 -16.49,-10.99 -8.79,-1.93 -11.26,-1.79 -20.6,0.68l-0.01 0zm629.43 -8.24c0.83,0.96 2.34,1.37 3.44,0.96 2.75,-0.96 2.47,-1.37 -1.51,-2.06 -2.75,-0.55 -3.16,-0.28 -1.93,1.1l0 0zm472.52 -3.99c-3.16,5.91 -9.34,17.18 -13.46,25.15 -25.42,48.91 -25.83,49.46 -42.05,57.57 -10.3,5.36 -23.9,7.42 -27.61,4.26 -6.05,-5.09 2.33,-29.41 20.61,-59.08 3.71,-5.91 5.9,-12.51 5.22,-14.84 -0.41,-0.83 -2.06,-1.65 -3.85,-1.65 -2.34,0 -4.95,2.75 -11.13,11.95 -16.9,25.56 -31.74,42.05 -44.79,50.29 -2.2,1.37 -3.85,2.89 -3.85,3.57 0,1.65 10.72,5.5 16.49,6.05 3.98,0.27 4.95,0.96 5.22,3.71 1.1,8.93 3.16,12.23 8.25,13.74 11.26,3.02 20.6,0.82 37.37,-9.21 8.93,-5.36 12.23,-5.63 17.45,-1.23 8.65,7.28 12.5,8.38 27.89,8.24 11.4,-0.14 16.21,-0.69 22.67,-3.16 12.64,-4.67 13.88,-4.81 17.31,-1.79 11.55,10.86 41.36,12.64 60.6,3.85 11.4,-5.22 18,-10.58 48.64,-39.3 49.87,-46.85 55.23,-51.66 61.41,-54.96 7.84,-4.12 10.58,-3.16 10.58,4.13 0,9.34 -3.02,13.87 -18.68,28.3 -49.74,45.62 -56.06,54.14 -53.45,71.59 1.1,7.42 3.16,8.38 10.72,5.08 6.59,-2.89 8.38,-4.67 33.25,-32.84 9.89,-11.4 23.35,-25.01 29.68,-30.36 17.17,-14.57 39.43,-30.78 47.26,-34.35 7.83,-3.71 16.9,-4.4 18,-1.38 1.1,2.75 -0.69,5.64 -11.82,18.83 -21.43,25.14 -28.44,47.26 -20.47,63.75 4.67,9.76 9.48,11.95 24.6,11.13 11.26,-0.55 23.9,-2.89 26.79,-4.95 0.82,-0.55 3.02,-1.37 5.22,-1.92 2.06,-0.55 6.18,-3.16 9.21,-5.77l5.49 -4.95 7.7 7.01c7.42,6.87 7.83,7.01 16.07,7.01 16.77,0 33.8,-6.32 47.54,-17.32 7.01,-5.63 8.52,-4.94 11.27,4.54 1.51,5.77 2.34,6.59 8.24,9.07 4.4,1.92 6.19,3.29 5.36,4.26 -0.82,1.1 3.44,1.51 14.15,1.51 13.88,-0.14 16.08,-0.41 22.4,-3.71 8.38,-4.4 22.54,-19.24 22.54,-23.5 -0.14,-2.75 -0.28,-2.88 -1.93,-0.69 -3.02,3.99 -17.45,11.96 -26.79,14.84 -13.19,4.13 -26.66,3.44 -19.1,-0.96 2.88,-1.65 2.61,-1.78 -3.3,-1.1l-6.59 0.83 0 -4.67c0,-2.75 1.78,-7.42 4.67,-12.09 2.47,-4.13 9.89,-15.94 16.35,-26.52 6.59,-10.44 12.23,-21.16 12.78,-23.64 1.65,-9.2 -2.34,-11.54 -8.8,-5.08 -5.9,6.18 -12.91,11.41 -14.84,11.41 -1.09,0 -1.92,-1.52 -1.92,-3.58 0,-5.22 -4.67,-11.95 -10.03,-14.97 -3.98,-2.06 -6.59,-2.34 -16.9,-1.65 -18.55,1.37 -32.15,6.46 -46.99,17.86 -11.68,8.93 -25.14,29.95 -30.5,47.68 -2.2,7.01 -2.89,7.83 -10.45,11.95 -8.51,4.67 -23.49,8.66 -32.15,8.66 -2.88,0 -8.1,-1.24 -11.68,-2.75l-6.45 -2.75 0.54 -8.79c0.55,-9.48 3.58,-15.53 18.28,-36 8.24,-11.41 14.43,-25.69 14.43,-33.25 0,-5.91 -3.03,-9.89 -9.9,-13.47 -9.62,-4.94 -29.13,1.93 -48.09,17.04 -14.01,11.13 -15.52,11.13 -11.4,-0.41 2.06,-5.64 2.75,-18 1.24,-21.85 -1.38,-3.71 -12.37,-2.75 -21.85,1.79 -10.17,4.81 -13.6,7.69 -48.78,40.67 -40.67,38.06 -40.94,38.33 -52.35,42.59 -5.63,2.06 -15.39,6.32 -21.84,9.35 -8.52,3.98 -14.02,5.63 -20.2,6.18 -8.38,0.55 -8.8,0.41 -13.47,-4.26 -6.87,-6.87 -6.45,-10.58 1.79,-14.43 15.39,-7.28 49.74,-37.1 54.27,-47.26 4.26,-9.21 4.4,-12.92 0.55,-16.77 -6.18,-6.04 -18.69,-4.81 -40.26,4.26 -9.75,4.12 -13.88,6.73 -20.61,13.47 -11.4,11.26 -14.84,20.06 -13.87,36.41 0.27,6.46 0.96,12.64 1.51,13.88 2.2,5.08 -25.15,12.09 -39.85,10.16 -8.38,-0.96 -10.85,-3.29 -10.72,-10.16 0,-7.56 4.13,-14.43 15.94,-27.21 5.91,-6.46 12.37,-14.56 14.15,-18.14 6.74,-13.32 9.48,-31.46 5.91,-39.57 -3.98,-9.07 -7.69,-7.97 -14.84,4.67l0 0zm417.98 23.77c3.43,4.26 3.15,5.64 -3.03,13.88 -3.85,5.08 -5.49,8.79 -5.49,11.82 0,3.71 -1.79,6.32 -9.9,14.84 -8.24,8.79 -11.95,11.54 -23.63,17.17 -16.76,8.38 -33.11,11.82 -42.59,9.07 -7.56,-2.2 -7.84,-5.5 -1.38,-15.53 6.05,-9.34 30.51,-33.93 43.28,-43.55 12.92,-9.76 19.38,-11.96 32.16,-11.13 6.32,0.41 8.79,1.1 10.58,3.43l0 0zm-330.18 7.29c-1.51,1.09 -28.16,22.67 -31.33,25.28 -3.84,3.3 -7,3.98 -7,1.65 0,-3.99 12.91,-18.83 20.33,-23.5 6.19,-3.71 15.8,-6.59 17.32,-5.08 0.68,0.68 1.09,1.37 0.68,1.64l0 0.01zm96.32 38.06c0,4.53 -30.37,38.47 -34.49,38.47 -0.69,0 -1.23,-1.38 -1.23,-3.16 0,-2.06 5.63,-8.8 17.17,-20.61 9.34,-9.62 17.45,-17.45 17.86,-17.45 0.41,0 0.69,1.23 0.69,2.75zm45.34 -111.02c-2.61,0.68 -7.14,3.16 -10.03,5.22l-5.36 3.85 21.44 -0.69c23.35,-0.96 36.55,1.23 41.49,6.59 1.65,1.79 4.12,2.61 8.11,2.61 5.91,0 10.72,-2.74 21.3,-12.22l4.8 -4.4 -5.49 0.82c-14.84,2.34 -26.24,2.2 -38.75,-0.55 -13.46,-3.02 -29.4,-3.57 -37.51,-1.23l0 0zm-546.58 -63.48c-11.95,10.03 -35.72,42.04 -63.89,86.28 -2.06,3.17 -5.22,6.46 -6.87,7.15 -2.74,1.1 -17.58,3.85 -49.05,9.07 -21.02,3.43 -24.73,4.26 -25.69,5.08 -1.24,1.38 3.02,1.24 25.69,-0.96 21.85,-1.92 40.81,-1.79 42.87,0.28 2.06,2.06 -7.28,18.54 -20.61,36.41 -13.19,17.45 -15.53,20.19 -27.75,29.81 -18.69,14.98 -31.47,21.85 -48.37,25.97 -12.64,3.02 -24.46,3.71 -28.44,1.51 -1.38,-0.69 -3.3,-3.16 -4.12,-5.36 -1.51,-3.43 -1.38,-4.94 1.1,-10.3 1.51,-3.44 4.8,-9.48 7.41,-13.47 10.31,-15.8 21.99,-36.13 23.91,-41.63 1.1,-3.3 1.79,-9.07 1.51,-13.05 -0.55,-9.48 -4.67,-12.92 -15.25,-12.92 -9.48,0 -27.75,8.38 -46.58,21.57 -3.16,2.07 -4.39,0.55 -2.33,-2.88 1.37,-2.2 1.37,-4.4 0,-10.85 -0.96,-4.4 -2.34,-9.07 -3.02,-10.31 -1.79,-3.43 -11.41,-5.77 -15.26,-3.71 -4.8,2.61 -18.96,13.88 -18.96,15.11 0,1.93 2.2,1.38 4.26,-0.96 3.99,-4.81 14.84,-7.97 18.83,-5.49 2.88,1.78 1.78,7.28 -2.75,14.15 -2.47,3.57 -16.9,18.96 -32.02,34.07 -15.25,15.12 -29.4,30.1 -31.46,33.25 -7.69,11.55 -9.62,22.26 -4.95,28.31 8.11,10.17 19.1,4.12 33.39,-18.41 8.11,-13.05 32.29,-40.81 45.21,-52.08 6.73,-5.77 15.8,-12.36 20.06,-14.42 4.26,-2.07 8.1,-4.26 8.52,-4.68 2.19,-2.88 10.71,-7.55 16.48,-9.06 5.91,-1.52 12.37,-1.52 12.37,0.13 0,0.28 -4.53,6.46 -10.03,13.88 -14.98,20.2 -18.28,25.97 -22.12,39.57 -4.54,15.67 -4.81,28.99 -0.69,34.21 6.46,8.25 34.35,10.31 50.98,3.72 7.14,-2.75 42.45,-27.76 52.07,-36.69 4.81,-4.54 7.28,-4.26 6.18,0.41 -2.61,12.09 -3.02,31.19 -0.82,38.61 2.75,9.07 6.59,12.23 15.8,13.33 22.95,2.88 57.98,-8.8 75.57,-25.42 7.97,-7.42 25.01,-20.61 26.66,-20.61 0.82,0 3.29,3.85 5.35,8.66 7.84,17.03 17.46,24.18 32.98,24.32 7.14,0 10.44,-0.83 20.2,-5.5l11.68 -5.5 7.14 3.99c3.99,2.2 9.62,4.4 12.51,4.81 2.74,0.55 5.08,1.37 5.08,2.06 0,0.55 -5.36,3.71 -11.95,7.01 -20.89,10.44 -42.46,25.69 -57.58,40.53 -7.55,7.55 -15.38,16.21 -17.31,19.23 -7.55,11.96 -12.36,22.4 -14.97,32.16 -2.34,8.79 -2.48,11.4 -1.24,21.02 2.61,19.23 6.18,28.03 14.43,36.27 8.24,8.25 13.6,10.03 23.63,7.56 3.43,-0.96 8.93,-3.44 12.09,-5.63 10.85,-7.42 27.48,-27.76 35.17,-43.01 1.52,-2.89 7.56,-13.19 13.47,-22.67 5.91,-9.62 18.96,-31.33 28.99,-48.37 25.7,-43.42 34.35,-56.88 44.79,-68.7 15.39,-17.72 26.93,-44.93 24.32,-57.7 -1.1,-5.64 -3.43,-5.23 -9.34,1.64 -6.04,7.01 -10.3,15.12 -14.29,27.21 -3.3,10.17 -1.51,8.79 -31.05,24.04 -21.85,11.27 -30.92,14.29 -43.97,14.71 -9.62,0.27 -11.68,-0.83 -11.68,-6.46 0,-10.31 24.32,-34.21 44.11,-43.15 8.65,-3.84 29.26,-8.65 34.9,-7.97 2.19,0.28 2.88,-0.96 3.71,-6.45 0.68,-3.71 0.82,-7.01 0.41,-7.42 -1.93,-1.93 -17.59,0.13 -30.09,3.98 -23.77,7.42 -43.83,19.1 -56.2,32.84 -7.28,8.11 -9.75,14.43 -8.93,22.67 0.41,3.3 0.41,6.6 -0.14,7.28 -1.92,3.16 -19.78,8.52 -28.3,8.52 -11.82,0 -14.98,-2.61 -14.98,-12.09 0,-12.64 3.99,-20.88 16.63,-34.21 9.75,-10.17 11.4,-12.64 11.4,-16.76 0,-3.44 1.1,-5.64 4.54,-8.94l4.53 -4.25 -2.47 -5.91c-1.38,-3.16 -3.16,-5.77 -3.71,-5.77 -0.69,0 -3.58,2.88 -6.46,6.45 -8.66,10.86 -34.76,37.1 -48.64,49.06 -15.11,13.05 -30.09,23.49 -41.91,28.99 -4.53,2.06 -13.05,6.18 -18.82,9.07 -15.66,7.55 -23.63,9.89 -31.6,9.2 -9.35,-0.96 -11.41,-3.43 -11.27,-13.19 0.14,-14.43 13.46,-48.09 27.07,-68.29 12.5,-18.55 30.64,-33.66 41.08,-34.62 26.11,-2.2 47.4,-3.16 93.84,-4.54 87.53,-2.33 154.99,1.1 199.92,10.31 8.66,1.65 21.71,3.57 28.86,3.98 11.67,0.83 12.64,0.69 8.93,-0.96 -6.32,-2.88 -39.3,-11.54 -59.08,-15.39 -37.65,-7.42 -77.5,-10.71 -120.92,-10.03 -15.11,0.14 -28.16,-0.13 -29.13,-0.68 -1.1,-0.69 -0.27,-2.2 2.48,-4.95 4.81,-4.95 4.94,-6.46 0.68,-11.82 -3.29,-3.98 -3.57,-3.98 -7.28,-2.06 -4.53,2.48 -9.89,10.17 -10.99,15.53 -0.41,2.2 -1.51,4.12 -2.34,4.4 -0.82,0.27 -18.13,1.51 -38.61,2.88 -20.33,1.24 -39.84,2.47 -43.28,2.75 -3.43,0.27 -10.99,0.82 -16.76,1.37 -5.91,0.41 -10.72,0.41 -10.72,0 0,-0.55 3.58,-5.36 7.97,-10.71 4.26,-5.36 10.44,-13.2 13.74,-17.45 3.3,-4.26 7.42,-9.21 9.21,-11.13 8.79,-9.48 20.88,-34.08 22.26,-45.35 0.68,-5.49 0.27,-7 -2.2,-9.48 -4.54,-4.53 -8.66,-3.57 -17.73,3.99l0 0zm12.1 6.18c0,2.75 -4.54,10.58 -13.74,23.36 -10.04,14.01 -14.84,20.88 -23.64,33.66 -3.85,5.64 -7.42,10.58 -7.97,10.99 -0.41,0.42 -1.92,2.2 -3.16,4.13 -4.81,7 -2.33,-1.24 3.85,-13.19 10.17,-19.38 28.72,-46.45 39.02,-57.03 4.12,-4.25 5.64,-4.81 5.64,-1.92l0 0zm-284.56 158.97c-2.47,4.81 -24.18,33.25 -30.64,40.26 -5.77,6.18 -12.5,8.52 -11.54,4.12 0.69,-3.43 40.67,-47.4 43,-47.4 0.42,0 0,1.37 -0.82,3.02zm401.35 49.19c0,1.51 -1.1,5.22 -2.34,8.38 -2.06,5.36 -23.77,44.8 -36.14,65.82 -2.88,4.94 -6.73,11.68 -8.52,15.11 -13.05,24.05 -29.12,50.84 -32.83,54.69 -9.9,10.17 -17.87,10.71 -26.25,1.92 -8.79,-9.2 -10.03,-12.91 -9.89,-29.81 0.14,-15.53 1.51,-22.13 7.56,-36.42 10.3,-24.45 42.45,-51.25 91.09,-75.57 15.12,-7.55 17.32,-8.1 17.32,-4.12l0 0zm-433.91 -280.71c3.29,17.86 0.68,35.18 -8.25,52.63 -2.88,5.63 -16.9,33.11 -31.05,61.14 -14.15,27.89 -26.52,51.66 -27.48,52.63 -2.34,2.47 -14.98,6.59 -39.02,12.64 -11.82,3.02 -21.57,5.49 -21.85,5.49 -1.24,0 0,-3.43 2.89,-7.97 1.78,-2.75 10.03,-16.49 18.27,-30.5 16.35,-27.62 21.57,-36.41 25.83,-43.42 1.51,-2.47 5.36,-9.07 8.38,-14.56 21.3,-37.38 32.02,-48.37 54.69,-56.2 14.42,-4.95 15.52,-7.42 2.75,-6.46 -18.69,1.51 -35.45,10.03 -52.22,26.52 -15.25,15.11 -19.51,21.57 -68.56,102.91l-24.73 41.09 -6.87 1.65c-20.47,4.94 -79.69,23.22 -95.77,29.67 -28.72,11.41 -35.31,15.67 -39.85,25.7 -4.8,10.71 0.42,19.92 15.26,26.93 8.38,3.84 10.03,4.26 22.8,3.98 24.46,-0.27 46.58,-8.79 65.96,-25.14 11.68,-9.89 45.06,-43.56 52.76,-53.18 5.49,-6.87 9.89,-9.06 23.49,-12.09 5.64,-1.23 15.53,-3.71 21.99,-5.63 20.88,-6.18 21.98,-6.46 22.94,-5.5 0.55,0.42 0.28,2.89 -0.68,5.36 -3.58,10.17 -10.03,37.65 -12.09,52.63 -2.75,18.96 -1.52,34.21 3.71,44.93 3.84,7.83 5.77,7 4.53,-1.79 -1.1,-8.66 1.51,-31.46 5.63,-47.68 3.44,-13.6 12.23,-38.33 17.04,-48.09 1.65,-3.16 2.89,-6.32 2.89,-7.01 0,-3.02 5.9,-5.9 17.99,-9.06 17.18,-4.54 66.23,-20.89 88.49,-29.41 52.9,-20.47 88.76,-40.26 108.55,-60.04 10.58,-10.44 15.25,-18.55 20.19,-35.04 3.85,-12.78 4.26,-36.13 0.83,-43.97l-2.06 -4.81 -0.96 14.43c-2.06,32.15 -6.74,43.7 -22.81,57.3 -36,30.36 -82.99,53.31 -161.45,78.87 -13.6,4.39 -26.52,8.65 -28.71,9.34 -2.2,0.82 -4.4,1.1 -4.81,0.69 -0.69,-0.69 15.94,-34.35 25.83,-51.94 13.88,-25.01 19.78,-37.37 22.12,-45.76 3.71,-13.46 6.04,-31.32 4.95,-37.92 -0.55,-3.16 -1.1,-7.28 -1.38,-9.2 -0.69,-5.64 -7.28,-19.93 -9.48,-20.34 -1.65,-0.41 -1.79,0.69 -0.69,6.18l0.01 0zm-177.53 214.62c0,2.48 -13.87,19.1 -23.22,28.03 -12.22,11.54 -21.02,17.45 -35.31,23.5 -19.78,8.65 -37.65,9.75 -47.54,3.16 -3.85,-2.61 -4.53,-3.99 -4.94,-9.48 -0.69,-9.9 4.12,-12.92 36.13,-23.22 14.29,-4.68 35.73,-11.68 47.4,-15.67 20.89,-7.28 27.49,-8.79 27.49,-6.32l-0.01 0zm-320.41 -242.51c-18.28,3.85 -31.88,20.34 -42.32,51.66 -5.77,17.45 -7.56,27.21 -9.76,51.25 -1.65,20.06 -1.78,20.48 -5.22,21.71 -50.29,17.86 -96.73,46.17 -115.14,70.08 -27.07,35.17 -20.47,72.13 11.41,63.34 12.91,-3.71 23.9,-14.57 28.57,-28.17 3.03,-8.93 5.5,-26.1 4.4,-30.5 -1.1,-4.26 -3.3,-4.54 -4.12,-0.41 -0.28,1.78 -1.51,8.93 -2.89,16.07 -4.12,23.77 -13.19,35.04 -30.5,37.92 -5.36,0.83 -6.32,0.55 -10.03,-3.15 -4.81,-4.95 -5.36,-10.72 -1.92,-22.13 2.47,-8.65 12.78,-25.69 20.88,-34.76 12.37,-13.74 44.93,-35.31 66.78,-44.38 13.46,-5.5 28.3,-9.48 29.81,-7.97 0.55,0.55 0.42,3.85 -0.41,7.28 -6.87,28.72 -17.17,62.93 -19.92,66.09 -0.96,1.24 -1.51,3.16 -1.1,4.26 0.82,2.06 -3.57,12.64 -12.78,31.33 -2.06,4.12 -7.69,13.46 -12.5,20.88 -6.46,10.17 -9.48,13.47 -11.68,13.47 -1.51,0 -7.83,-1.92 -13.88,-4.12 -19.92,-7.56 -51.52,-10.72 -65.81,-6.6 -9.21,2.61 -9.35,4.4 -0.14,3.03 13.88,-2.07 29.4,-1.38 41.91,1.92 12.91,3.16 25.14,9.2 28.3,13.88 2.06,2.88 1.79,3.43 -3.57,10.58 -15.8,20.88 -36.96,32.7 -61.97,34.48 -12.64,0.97 -18.82,-0.82 -26.38,-7.69 -6.04,-5.5 -9.76,-12.64 -11.27,-22.12 -0.82,-4.95 -1.23,-5.64 -2.2,-3.44 -1.64,4.4 -1.37,15.53 0.69,20.48 5.36,12.91 18.83,21.43 34.08,21.43 24.73,0 52.07,-10.72 75.02,-29.4 7.14,-5.77 13.74,-10.45 14.7,-10.45 1.1,0 8.52,4.81 16.76,10.58 35.59,25.56 72.14,43.15 109.51,52.77 60.73,15.66 142.62,7.14 194.56,-20.2 9.07,-4.67 14.98,-9.48 13.46,-10.86 -0.41,-0.41 -5.22,1.24 -10.85,3.58 -12.92,5.36 -39.98,12.36 -67.19,17.31 -20.06,3.57 -23.49,3.85 -59.08,3.85 -34.35,0 -39.16,-0.28 -53.59,-3.3 -27.34,-5.63 -53.86,-15.67 -69.38,-26.25 -12.37,-8.51 -46.03,-26.93 -57.3,-31.46 -4.4,-1.79 -7.97,-3.71 -7.97,-4.4 0,-0.55 1.92,-3.84 4.26,-7.42 5.22,-7.83 20.2,-37.92 25.56,-51.52 14.97,-37.79 21.98,-63.89 25.28,-94.12 0.96,-8.38 2.06,-16.08 2.47,-17.31 0.41,-1.24 7.01,-6.87 14.7,-12.64 43.83,-32.98 65.68,-65.68 63.35,-94.67 -0.97,-11 -3.58,-16.77 -8.8,-18.69 -6.18,-2.33 -18.27,-2.75 -26.79,-1.1l0 0zm23.63 8.11c2.89,1.37 3.44,2.75 3.85,8.93 1.1,19.51 -16.22,46.99 -46.86,74.2 -8.79,7.69 -16.21,14.01 -16.62,14.01 -1.51,0 -0.83,-15.94 1.1,-28.99 4.53,-29.95 10.72,-46.44 21.71,-58.4 10.58,-11.54 25,-15.25 36.82,-9.75z"/>
   <path id="Sobrero"  d="M864.77 203.77l-2.02 2.4c-5.39,5.59 -22.15,5.23 -29.21,5.37 -28.84,0.57 -37.09,5.07 -58.69,8.06l-54.54 9.99c-9.56,1.98 -19.87,2.77 -29.33,5.11 -12.83,3.17 -11.73,4.98 -27.85,5.07 -13.53,0.07 -18.49,3.5 -30.34,5.44 -10.08,1.64 -19.08,2.35 -29.04,4.01l-137.33 31.82c-1.61,0.33 -9.81,1.63 -12.73,2.35 -9.14,2.26 -29.06,11.95 -40.01,12.14l12.26 3.25c12.87,1.38 12.97,1.49 25.81,-1.2 11.67,-2.45 32.39,-2.57 45.4,-3.56 14.99,-1.13 27.89,-4.92 41.85,-4.39 16.54,0.63 28.75,0.43 45.82,-0.98 14.38,-1.18 29.31,-1.91 44.07,-2.76 13.24,-0.76 11.87,-2.53 31.46,-3.15 2.31,-0.07 3.33,-0.05 5.62,-0.47 25.4,-4.66 25.44,-1.63 52.06,-2.13 16.46,-0.3 29.82,-3.97 46.19,-3.95 29.57,0.05 59.51,-6.19 89.53,-5.55l91.87 -5.16c30.95,-2.38 60.58,-2.7 91.53,-3.46l72.2 -1.43c10.81,-0.02 19.54,-1.72 24.55,3.73l1.86 -1.01c24.69,-5.98 164.3,5.76 201.6,8.02 34.48,2.08 106.64,7.81 140.34,14.76 15.71,3.24 32.32,1.11 44.64,3.7 1.66,-4.21 -1.82,-0.16 3.33,-3.45 3.88,-2.47 1.51,1.64 1.6,-1.77 -4.77,-6.43 -14.59,-2.55 -23.25,-4.55 -4.82,-1.12 -2.3,-1.44 -9.23,-2.48 -15.45,-2.31 -24.41,-6.28 -32.16,-7.59 -31.5,-5.31 -86.52,-14.09 -115.02,-16.73 -14.5,-1.34 -57.33,-5.29 -69.74,-9.05 -7.53,-2.28 -58.68,-3.4 -72.26,-5.14 -58.55,-7.5 -49.13,-3.86 -100.54,-3.05 -17.3,0.27 -32.93,-1.22 -50.59,-1.24 -35.05,-0.03 -68.95,-0.5 -103.97,0.49 -17.44,0.49 -36.32,-2.11 -53.42,-1.56 -17.61,0.56 -32.48,1.69 -49.2,2.78 -7.54,0.49 -6.57,1.26 -10.56,3.36 -3.66,1.92 -4.56,2.45 -10.14,0.99 -6.39,-1.68 -1.35,-2.53 -10.27,-1.54l-21.86 1.23c-4.81,1.86 -3.3,6.54 -20.78,4.87 -6.16,-0.58 -5.48,-2.25 -7.59,-2.43 19.1,-3.8 35.63,-2.91 54.02,-6.66 15.46,-3.15 40.62,1.67 54.99,-4.45l-30.16 0.72c5.58,-6.45 26.36,-7.05 35.09,-7.68 25.77,-1.86 81.62,-9.41 107.59,-12.93 54.19,-7.35 98.33,6.46 150.01,-13.72 0.19,-5.75 2.67,-5.78 -2.55,-11.57 -8.39,-9.29 -31.62,-10.47 -43.72,-10.1 -35.24,1.07 -194.71,10.88 -205.81,4.19 -0.11,-11.7 16.24,-13.95 27.34,-16.7 2.22,-5.52 -3.36,-2.01 5.41,-4.9l93.82 -15.38c25.49,-8.66 27.84,-3.74 49.65,-9.59 9.19,-2.47 14.71,-1.48 22.87,-5.89 9.89,-5.35 12.12,-3.43 12.66,-16.57 -7.7,-4.52 -17.39,-4.22 -27.46,-2.14 -5.6,1.15 -8.57,3.02 -12.44,4.18 -5.01,1.51 -9.36,0.92 -14.47,1.9 -18.09,3.5 -27.65,9.54 -53.97,11.57 -20.14,1.55 -39.06,7.33 -56.79,11.3 -4.01,0.9 -9.17,1.49 -14.47,2.71 -2.51,0.57 -7.82,2.28 -12.54,3.16 -20.75,3.9 -12.18,6.66 -24.56,5.35 -2.08,-3.01 -0.36,0.05 -2.37,-3.25 -4.03,-6.62 -1.53,-8.06 -6.29,-14.22 -14.23,-0.76 -26,12.63 -8.77,25.96 -3.07,4.77 -0.26,0.67 -1.65,5.85l-0.95 3.28c-0.05,0.12 -1.61,3.68 -1.61,3.7 -2.3,5.19 2.49,1.15 -0.95,2.04 -14.45,7.91 -15.4,1.55 -30.07,7.39 0.62,4.48 1.27,5.81 1.27,11.28 25.28,1.82 12.91,5.02 22.36,7.03 9.82,2.1 12.22,-3.29 12.6,4.98zm10.93 28.05c-14.37,6.12 -39.53,1.3 -54.99,4.45 -18.39,3.75 -34.92,2.86 -54.02,6.66 2.11,0.18 1.43,1.85 7.59,2.43 17.48,1.67 15.97,-3.01 20.78,-4.87l21.86 -1.23c8.92,-0.99 3.88,-0.14 10.27,1.54 5.58,1.46 6.48,0.93 10.14,-0.99 3.99,-2.1 3.02,-2.87 10.56,-3.36 16.72,-1.09 31.59,-2.22 49.2,-2.78 17.1,-0.55 35.98,2.05 53.42,1.56 35.02,-0.99 68.92,-0.52 103.97,-0.49 17.66,0.02 33.29,1.51 50.59,1.24 51.41,-0.81 41.99,-4.45 100.54,3.05 13.58,1.74 64.73,2.86 72.26,5.14 12.41,3.76 55.24,7.71 69.74,9.05 28.5,2.64 83.52,11.42 115.02,16.73 7.75,1.31 16.71,5.28 32.16,7.59 6.93,1.04 4.41,1.36 9.23,2.48 8.66,2 18.48,-1.88 23.25,4.55 -0.09,3.41 2.28,-0.7 -1.6,1.77 -5.15,3.29 -1.67,-0.76 -3.33,3.45 -12.32,-2.59 -28.93,-0.46 -44.64,-3.7 -33.7,-6.95 -105.86,-12.68 -140.34,-14.76 -37.3,-2.26 -176.91,-14 -201.6,-8.02 4.7,2.8 10.18,2.25 16.92,2.32l116.26 4.46c43.09,2.73 85.79,6.62 127.82,9.6 38.05,2.7 142.14,15.44 183.09,22.66 15.58,2.75 44.14,7.86 59.85,8.86 -3.69,-2.61 -7.63,-3.39 -12.07,-4.2l-47.32 -13.48c-3.08,-0.92 -4,-1.32 -7.59,-2.17 -5.79,-1.37 -5.66,-0.83 -9.33,-3.78 -3.76,0.82 -86.85,-18.54 -100.54,-21.11 -35.04,-6.57 -68.57,-11.4 -104.76,-16.52 -68.79,-9.73 -151.43,-18.33 -221.31,-19.28 -43.74,-0.56 -87.75,-2.93 -131.39,-2.67 -42.77,0.25 -86.86,2.67 -129.69,3.82zm103.14 -162.66c9.01,0.31 45.01,-3.89 53.46,-6.52 5.17,-1.61 5.48,-2.62 10.75,-4.08 4.5,-1.24 7.58,-1.75 11.54,-2.87 20.68,-5.87 10.57,-2.2 23.64,-5.14 15.27,-3.43 28.42,-9.76 47.35,-5.49l32.21 10.84c21.62,9.67 40.65,14.82 52.23,20.34 17.23,8.2 117.78,47.44 127.44,42.94l-1.64 -1.21c-10.79,-7.49 -7.76,-4.68 -18.89,-9.89 -4.23,-1.98 -7.17,-3.12 -10.25,-5.67 -2.62,-2.17 -2.08,-2.14 -5.05,-4.01 -1.84,-1.16 -3.25,-1.84 -4.48,-2.6 -19.96,-12.43 -63.96,-30.64 -86.49,-38.53 -14.32,-5.02 -28.73,-13.91 -42.33,-19.49l-34.19 -11.99c-0.32,-0.12 -0.69,-0.3 -1,-0.42 -3.13,-1.19 -7.9,-1.8 -12.62,-0.85l-48.81 13.01c-8.82,2.54 -15.92,3.68 -25.45,6.12 -10.5,2.7 -31.53,13.15 -45.9,16.16 -5.98,1.25 -17.61,5 -21.52,9.35zm155.06 195.16c-5.01,-5.45 -13.74,-3.75 -24.55,-3.73l-72.2 1.43c-30.95,0.76 -60.58,1.08 -91.53,3.46l-91.87 5.16c-30.02,-0.64 -59.96,5.6 -89.53,5.55 -16.37,-0.02 -29.73,3.65 -46.19,3.95 -26.62,0.5 -26.66,-2.53 -52.06,2.13 -2.29,0.42 -3.31,0.4 -5.62,0.47 -19.59,0.62 -18.22,2.39 -31.46,3.15 -14.76,0.85 -29.69,1.58 -44.07,2.76 -17.07,1.41 -29.28,1.61 -45.82,0.98 -13.96,-0.53 -26.86,3.26 -41.85,4.39 -13.01,0.99 -33.73,1.11 -45.4,3.56 -12.84,2.69 -12.94,2.58 -25.81,1.2l-12.26 -3.25c10.95,-0.19 30.87,-9.88 40.01,-12.14 2.92,-0.72 11.12,-2.02 12.73,-2.35l137.33 -31.82c9.96,-1.66 18.96,-2.37 29.04,-4.01 11.85,-1.94 16.81,-5.37 30.34,-5.44 16.12,-0.09 15.02,-1.9 27.85,-5.07 9.46,-2.34 19.77,-3.13 29.33,-5.11l54.54 -9.99c21.6,-2.99 29.85,-7.49 58.69,-8.06 7.06,-0.14 23.82,0.22 29.21,-5.37 -85.18,4.95 -173.08,21.09 -253.64,37.51 -38.65,7.88 -167.02,35.8 -204.23,50.06 -5.92,2.27 -7.81,3.6 -12.46,6.46 -11.01,6.79 -7.73,2.61 -9.69,7.95 12.04,0.67 33.22,-3.13 46.61,-4.13 108.4,-8.04 213.85,-16.74 323.33,-22.95 125.8,-7.14 253.34,-19.15 381.23,-16.75zm-155.06 -195.16c3.91,-4.35 15.54,-8.1 21.52,-9.35 14.37,-3.01 35.4,-13.46 45.9,-16.16 9.53,-2.44 16.63,-3.58 25.45,-6.12l48.81 -13.01c4.72,-0.95 9.49,-0.34 12.62,0.85 0.31,0.12 0.68,0.3 1,0.42l34.19 11.99c13.6,5.58 28.01,14.47 42.33,19.49 22.53,7.89 66.53,26.1 86.49,38.53 1.23,0.76 2.64,1.44 4.48,2.6 2.97,1.87 2.43,1.84 5.05,4.01 3.08,2.55 6.02,3.69 10.25,5.67 11.13,5.21 8.1,2.4 18.89,9.89l1.64 1.21c-9.66,4.5 -110.21,-34.74 -127.44,-42.94 -11.58,-5.52 -30.61,-10.67 -52.23,-20.34l-32.21 -10.84c-18.93,-4.27 -32.08,2.06 -47.35,5.49 -13.07,2.94 -2.96,-0.73 -23.64,5.14 -3.96,1.12 -7.04,1.63 -11.54,2.87 -5.27,1.46 -5.58,2.47 -10.75,4.08 -8.45,2.63 -44.45,6.83 -53.46,6.52zm-77.69 25.77c10.43,-0.08 23.92,-4.64 33.98,-7.04l99.64 -22.7c21.7,-5.65 44.72,-10.34 67.14,-15.42 26.07,-5.92 30.82,1.61 63,14.11 51.01,19.81 126.36,48.54 178.69,66.59 10.79,3.72 18.91,6.78 30.37,10.24 10.33,3.12 21.44,8.78 32.04,10.39 -2.32,-5.44 0.48,-1.72 -5.59,-5.6 -30.43,-19.43 -78.49,-43.01 -109.69,-57.56 -40.27,-18.79 -78.79,-38.34 -122.55,-55.06 -31.32,-11.96 -33.41,-15.92 -68.63,-7.19 -48.37,11.98 -123.14,34.19 -168.39,53.94 -5.66,2.47 -8.93,3.94 -14.88,6.65l-11.72 5.69c-4.68,3.12 -1.25,0.57 -3.41,2.96zm-36.38 108.84c-0.38,-8.27 -2.78,-2.88 -12.6,-4.98 -9.45,-2.01 2.92,-5.21 -22.36,-7.03 0,-5.47 -0.65,-6.8 -1.27,-11.28 14.67,-5.84 15.62,0.52 30.07,-7.39 3.44,-0.89 -1.35,3.15 0.95,-2.04 0,-0.02 1.56,-3.58 1.61,-3.7l0.95 -3.28c1.39,-5.18 -1.42,-1.08 1.65,-5.85 -17.23,-13.33 -5.46,-26.72 8.77,-25.96 4.76,6.16 2.26,7.6 6.29,14.22 2.01,3.3 0.29,0.24 2.37,3.25 12.38,1.31 3.81,-1.45 24.56,-5.35 4.72,-0.88 10.03,-2.59 12.54,-3.16 5.3,-1.22 10.46,-1.81 14.47,-2.71 17.73,-3.97 36.65,-9.75 56.79,-11.3 26.32,-2.03 35.88,-8.07 53.97,-11.57 5.11,-0.98 9.46,-0.39 14.47,-1.9 3.87,-1.16 6.84,-3.03 12.44,-4.18 10.07,-2.08 19.76,-2.38 27.46,2.14 -0.54,13.14 -2.77,11.22 -12.66,16.57 -8.16,4.41 -13.68,3.42 -22.87,5.89 -21.81,5.85 -24.16,0.93 -49.65,9.59l-93.82 15.38c-8.77,2.89 -3.19,-0.62 -5.41,4.9 23.18,-2.46 130.55,-20.57 158.72,-26.84 15.89,-3.54 37.28,-7.38 33.7,-26.66 -10.77,-21.01 -105.7,13.25 -128.85,12.17 -4.23,4 -40.07,9.57 -48.78,11.48 -16.64,3.66 -34.82,9.94 -51.65,6.88 6.72,-13.96 92.93,-39.8 116.03,-44.4l40.76 -12.68c-0.24,-0.04 -0.7,-0.16 -0.97,-0.18l-11.57 2.05c-32.12,7.55 -68.3,12.7 -100.14,20.93 -11.46,2.96 -89.22,24.07 -70.65,47.82 4.23,5.41 6.69,1.83 9.49,7.85 -2.31,2.69 0.36,0.29 -2.19,2.09 -3.41,2.4 -16.68,5.53 -22.51,7.77 -49.4,19.03 3.25,28.74 29.89,31.46zm10.93 28.05c42.83,-1.15 86.92,-3.57 129.69,-3.82 43.64,-0.26 87.65,2.11 131.39,2.67 -2.03,-1.73 -1.34,-1.69 -5.05,-3.06l-16.6 -1.16c-7.69,-0.11 -15.43,-0.02 -23.13,-0.19 -26.91,-0.61 -122.03,1.56 -131.61,-3.09l5.76 -1.97c13.51,-3.24 7.3,-2.89 13.68,-4.78 20.69,-6.14 88.84,-0.59 120.41,-4.9 7.61,-1.03 13.93,-2.12 21.04,-3.34 9.32,-1.59 12.96,-0.8 16.95,-9.97 -51.68,20.18 -95.82,6.37 -150.01,13.72 -25.97,3.52 -81.82,11.07 -107.59,12.93 -8.73,0.63 -29.51,1.23 -35.09,7.68l30.16 -0.72zm101.36 -109.12c-5.93,-1.28 -39.82,5.26 -44.04,5.17 -2.76,-5.1 -0.06,-3.18 -4.31,-7.25 1.09,-0.84 0.87,-0.82 2.77,-1.78 7.11,-3.6 7.4,-0.97 11.46,-2.01 4.19,-1.06 0.21,0.06 2.51,-1.26 3.22,-1.84 -0.24,-2.64 13.73,-2.71l0 -2.53c7.48,-0.48 8.41,0.77 14.44,0.69 1.52,-5.2 -4.84,-4.04 7.28,-6.32 6.64,-1.26 9.35,-2.1 11.76,-8.04 -23.1,4.6 -109.31,30.44 -116.03,44.4 16.83,3.06 35.01,-3.22 51.65,-6.88 8.71,-1.91 44.55,-7.48 48.78,-11.48zm650.57 184.31c-1.01,-5.52 -1.59,-5.72 -2.04,-12.52 -13.35,-1.05 -49.56,-7.97 -62.2,-6.91 3.67,2.95 3.54,2.41 9.33,3.78 3.59,0.85 4.51,1.25 7.59,2.17l47.32 13.48z"/>
  </g>
 </g>
</svg>
