<?xml version="1.0" encoding="UTF-8"?>
<!DOCTYPE svg PUBLIC "-//W3C//DTD SVG 1.1//EN" "http://www.w3.org/Graphics/SVG/1.1/DTD/svg11.dtd">
<!-- Creator: CorelDRAW 2020 (64-Bit) -->
<svg xmlns="http://www.w3.org/2000/svg" xml:space="preserve" width="6024px" height="2598px" version="1.1" shape-rendering="geometricPrecision" text-rendering="geometricPrecision" image-rendering="optimizeQuality" fill-rule="evenodd" clip-rule="evenodd"
viewBox="0 0 6024 2598.59"
 xmlns:xlink="http://www.w3.org/1999/xlink"
 xmlns:xodm="http://www.corel.com/coreldraw/odm/2003">
 <g id="Capa_x0020_1">
  <metadata id="CorelCorpID_0Corel-Layer"/>
  <path id="La_x0020_Antigueña"  fill-rule="nonzero" d="M4287.51 1888.73c3,1.28 6.87,0.88 8.15,-0.43 1.72,-1.28 -0.88,-2.56 -5.59,-2.13 -4.72,0 -6,1.28 -2.56,2.56zm1151.69 -14.58c-1.94,0 -11.06,0 -12.4,0.81 4.22,-0.22 8.37,-0.5 12.4,-0.81zm185.7 -37.83c1.62,-1.06 0.62,-1.5 -2.66,-1.22l2.66 1.22zm-5098.31 -156.58c-1.28,2.56 0.44,2.99 3.88,1.71 7.71,-3 8.99,-6.03 3,-6.03 -2.6,0 -5.6,1.72 -6.88,4.31l0 0.01zm1963.48 -74.69c-21.45,17.59 -51.91,44.2 -67.78,59.22 -15.9,14.59 -52.79,47.64 -82.4,73.41 -29.64,25.74 -56.66,50.63 -60.53,55.35 -7.28,8.59 -6.44,19.74 1.28,19.74 2.15,0 27.49,-21.9 56.22,-48.48 66.97,-61.38 199.16,-191.85 195.29,-191.85 -1.72,0 -20.62,14.59 -42.08,32.61l0 0 0 0zm-1545.04 -30.05c-55.79,15.03 -100.83,50.67 -160.09,127.48 -5.12,6.43 -11.99,14.58 -14.58,18.02 -3,3 -5.56,8.59 -5.56,12.02 0,3.44 -3,8.59 -6.44,11.59 -3.87,3 -6.46,8.59 -5.59,12.44 0.44,3.87 -1.28,11.15 -4.31,16.3 -3,5.15 -4.28,12.03 -3,15.02 0.88,3 3.87,13.75 6.44,23.62 6.87,26.61 27.92,39.92 62.25,39.92 34.77,0 62.66,-8.15 118.01,-34.33 56.22,-26.61 65.66,-26.61 69.09,-1.31 3.03,22.77 8.59,29.2 32.64,37.36 70.82,24.02 136.47,4.71 177.24,-51.95 20.17,-28.33 21.89,-35.61 5.59,-23.18 -57.1,43.8 -90.99,58.82 -127.04,54.95 -39.92,-3.88 -50.63,-29.61 -32.2,-78.97 10.74,-29.61 20.61,-47.63 40.36,-75.52 8.15,-11.19 14.58,-21.46 14.58,-22.78 0,-1.68 9.87,-14.99 21.46,-30.01 19.74,-25.34 27.46,-44.64 17.18,-44.64 -5.59,0 -53.22,41.2 -112.01,97.43 -27.05,25.3 -61.38,58.35 -76.84,72.93 -31.77,30.05 -57.07,42.92 -111.17,56.66 -55.35,13.75 -70.81,11.59 -69.94,-11.15 0.85,-24.45 14.59,-45.91 57.95,-89.27 52.35,-51.94 95.7,-84.99 126.6,-96.55 24.02,-9.03 71.24,-11.62 75.96,-4.31 3.44,5.15 19.3,5.59 19.3,0.44 0,-9.43 -30.89,-30.05 -51.5,-34.33 -27.46,-6.03 -35.17,-5.59 -64.35,2.12l-0.03 0 0 0zm1966.07 -25.74c2.59,3 7.31,4.28 10.75,3 8.59,-3 7.71,-4.28 -4.72,-6.43 -8.59,-1.72 -9.87,-0.88 -6.03,3.43l0 0zm1475.95 -12.46c-9.87,18.46 -29.17,53.66 -42.04,78.56 -79.4,152.77 -80.68,154.49 -131.34,179.82 -32.18,16.74 -74.66,23.18 -86.25,13.31 -18.89,-15.9 7.28,-91.87 64.38,-184.54 11.59,-18.46 18.43,-39.08 16.3,-46.36 -1.28,-2.59 -6.43,-5.15 -12.02,-5.15 -7.31,0 -15.46,8.59 -34.77,37.33 -52.78,79.83 -99.14,131.34 -139.9,157.08 -6.87,4.28 -12.03,9.03 -12.03,11.15 0,5.16 33.49,17.18 51.51,18.9 12.43,0.84 15.46,3 16.31,11.59 3.43,27.89 9.87,38.2 25.77,42.92 35.17,9.43 64.34,2.56 116.72,-28.77 27.9,-16.74 38.21,-17.59 54.51,-3.84 27.02,22.74 39.05,26.17 87.12,25.73 35.61,-0.43 50.63,-2.15 70.81,-9.87 39.48,-14.59 43.35,-15.02 54.07,-5.59 36.08,33.92 129.19,39.48 189.29,12.03 35.61,-16.31 56.22,-33.05 151.93,-122.76 155.77,-146.34 172.51,-161.36 191.82,-171.67 24.49,-12.87 33.04,-9.87 33.04,12.9 0,29.17 -9.43,43.32 -58.35,88.4 -155.36,142.49 -175.1,169.11 -166.95,223.61 3.43,23.18 9.87,26.18 33.48,15.87 20.59,-9.03 26.18,-14.59 103.86,-102.58 30.89,-35.61 72.94,-78.12 92.71,-94.83 53.63,-45.51 123.16,-96.14 147.62,-107.29 24.46,-11.59 52.79,-13.75 56.22,-4.31 3.44,8.59 -2.15,17.61 -36.92,58.81 -66.94,78.53 -88.83,147.62 -63.94,199.13 14.59,30.49 29.62,37.33 76.84,34.77 35.18,-1.72 74.66,-9.03 83.68,-15.47 2.56,-1.71 9.44,-4.28 16.31,-5.99 6.43,-1.72 19.3,-9.87 28.77,-18.03l17.15 -15.46 24.05 21.9c23.17,21.46 24.45,21.9 50.19,21.9 52.39,0 105.58,-19.75 148.5,-54.11 21.9,-17.58 26.61,-15.43 35.2,14.19 4.72,18.02 7.31,20.58 25.74,28.33 13.74,5.99 19.33,10.27 16.74,13.3 -2.56,3.44 10.75,4.72 44.2,4.72 43.35,-0.44 50.23,-1.28 69.97,-11.59 26.17,-13.74 70.4,-60.1 70.4,-73.4 -0.43,-8.59 -0.87,-9 -6.03,-2.16 -9.43,12.46 -54.5,37.36 -83.68,46.35 -41.2,12.91 -83.27,10.75 -59.66,-2.99 9,-5.16 8.16,-5.56 -10.3,-3.44l-20.59 2.59 0 -14.59c0,-8.58 5.56,-23.17 14.59,-37.76 7.71,-12.9 30.89,-49.79 51.07,-82.84 20.58,-32.61 38.2,-66.09 39.92,-73.84 5.15,-28.74 -7.31,-36.04 -27.49,-15.87 -18.43,19.31 -40.32,35.64 -46.35,35.64 -3.41,0 -6,-4.74 -6,-11.18 0,-16.3 -14.59,-37.33 -31.33,-46.76 -12.43,-6.43 -20.58,-7.31 -52.79,-5.15 -57.94,4.28 -100.42,20.18 -146.77,55.78 -36.49,27.9 -78.53,93.56 -95.27,148.94 -6.87,21.89 -9.03,24.45 -32.64,37.32 -26.59,14.59 -73.38,27.05 -100.43,27.05 -8.99,0 -25.3,-3.87 -36.48,-8.59l-20.15 -8.59 1.69 -27.45c1.72,-29.61 11.18,-48.51 57.1,-112.45 25.74,-35.64 45.07,-80.25 45.07,-103.86 0,-18.46 -9.46,-30.89 -30.92,-42.07 -30.05,-15.44 -90.99,6.02 -150.21,53.22 -43.76,34.77 -48.48,34.77 -35.61,-1.28 6.43,-17.62 8.59,-56.22 3.87,-68.25 -4.31,-11.59 -38.64,-8.59 -68.25,5.59 -31.77,15.03 -42.48,24.02 -152.37,127.04 -127.03,118.88 -127.88,119.72 -163.52,133.03 -17.58,6.44 -48.07,19.74 -68.22,29.21 -26.61,12.43 -43.79,17.58 -63.09,19.3 -26.18,1.72 -27.49,1.28 -42.08,-13.31 -21.46,-21.45 -20.15,-33.04 5.59,-45.07 48.08,-22.74 155.37,-115.88 169.52,-147.62 13.31,-28.77 13.74,-40.35 1.72,-52.38 -19.31,-18.87 -58.38,-15.03 -125.76,13.3 -30.45,12.87 -43.35,21.03 -64.37,42.08 -35.61,35.17 -46.36,62.66 -43.33,113.73 0.85,20.18 3,39.48 4.72,43.35 6.87,15.87 -78.56,37.77 -124.48,31.74 -26.17,-3 -33.89,-10.28 -33.48,-31.74 0,-23.61 12.9,-45.07 49.79,-84.99 18.46,-20.18 38.64,-45.48 44.2,-56.66 21.05,-41.61 29.61,-98.27 18.46,-123.6 -12.43,-28.33 -24.02,-24.9 -46.36,14.59l0 0 0 0zm1305.6 74.25c10.71,13.3 9.84,17.62 -9.47,43.35 -12.02,15.87 -17.15,27.46 -17.15,36.92 0,11.59 -5.59,19.75 -30.92,46.36 -25.74,27.45 -37.33,36.04 -73.81,53.63 -52.35,26.18 -103.42,36.92 -133.03,28.33 -23.62,-6.87 -24.49,-17.18 -4.31,-48.51 18.89,-29.17 95.3,-105.98 135.18,-136.03 40.36,-30.49 60.54,-37.36 100.46,-34.77 19.74,1.28 27.46,3.44 33.05,10.72l0 0 0 0zm-1031.34 22.77c-4.72,3.4 -87.96,70.81 -97.87,78.96 -11.99,10.31 -21.86,12.43 -21.86,5.16 0,-12.47 40.32,-58.82 63.5,-73.41 19.34,-11.59 49.35,-20.58 54.1,-15.87 2.13,2.13 3.41,4.28 2.13,5.13l0 0.03 0 0zm300.86 118.88c0,14.15 -94.87,120.17 -107.74,120.17 -2.15,0 -3.84,-4.31 -3.84,-9.88 0,-6.43 17.59,-27.48 53.63,-64.37 29.18,-30.05 54.51,-54.51 55.79,-54.51 1.28,0 2.16,3.84 2.16,8.59l0 0zm141.62 -346.78c-8.15,2.13 -22.3,9.87 -31.33,16.31l-16.74 12.02 66.97 -2.15c72.93,-3 114.16,3.84 129.6,20.58 5.15,5.59 12.86,8.15 25.33,8.15 18.46,0 33.48,-8.55 66.53,-38.17l14.99 -13.74 -17.15 2.56c-46.35,7.31 -81.96,6.87 -121.03,-1.72 -42.05,-9.43 -91.84,-11.15 -117.17,-3.84l0 0 0 0zm-1707.28 -198.28c-37.33,31.33 -111.58,131.31 -199.57,269.5 -6.43,9.9 -16.3,20.18 -21.46,22.33 -8.56,3.44 -54.91,12.03 -153.21,28.33 -65.66,10.72 -77.25,13.31 -80.24,15.87 -3.88,4.31 9.43,3.88 80.24,-3 68.25,-5.99 127.47,-5.59 133.91,0.88 6.43,6.43 -22.74,57.91 -64.38,113.73 -41.2,54.5 -48.51,63.06 -86.68,93.11 -58.38,46.79 -98.3,68.25 -151.09,81.12 -39.48,9.43 -76.4,11.59 -88.83,4.72 -4.31,-2.16 -10.31,-9.87 -12.87,-16.75 -4.72,-10.71 -4.31,-15.43 3.44,-32.17 4.71,-10.74 14.99,-29.61 23.14,-42.07 32.2,-49.36 68.69,-112.86 74.69,-130.04 3.43,-10.31 5.59,-28.33 4.71,-40.76 -1.72,-29.61 -14.59,-40.36 -47.63,-40.36 -29.61,0 -86.68,26.18 -145.5,67.38 -9.87,6.47 -13.71,1.72 -7.28,-9 4.28,-6.87 4.28,-13.74 0,-33.89 -3,-13.74 -7.31,-28.33 -9.43,-32.2 -5.59,-10.71 -35.64,-18.02 -47.67,-11.59 -14.99,8.15 -59.22,43.36 -59.22,47.2 0,6.03 6.87,4.31 13.31,-3 12.46,-15.02 46.35,-24.89 58.81,-17.15 9,5.56 5.56,22.74 -8.59,44.2 -7.71,11.15 -52.78,59.22 -100.01,106.42 -47.64,47.23 -91.84,94.02 -98.27,103.86 -24.02,36.08 -30.05,69.53 -15.46,88.43 25.33,31.76 59.66,12.87 104.29,-57.51 25.34,-40.76 100.86,-127.47 141.22,-162.67 21.02,-18.03 49.35,-38.61 62.66,-45.05 13.31,-6.46 25.3,-13.3 26.61,-14.61 6.84,-9 33.46,-23.59 51.48,-28.3 18.46,-4.75 38.64,-4.75 38.64,0.4 0,0.88 -14.15,20.18 -31.33,43.36 -46.79,63.09 -57.1,81.12 -69.1,123.6 -14.18,48.94 -15.02,90.55 -2.15,106.85 20.18,25.77 107.29,32.21 159.24,11.62 22.3,-8.59 132.59,-86.71 162.64,-114.6 15.03,-14.18 22.74,-13.31 19.31,1.28 -8.15,37.76 -9.43,97.42 -2.56,120.6 8.59,28.33 20.58,38.2 49.35,41.64 71.69,9 181.11,-27.49 236.05,-79.4 24.89,-23.18 78.12,-64.38 83.27,-64.38 2.56,0 10.28,12.03 16.71,27.05 24.49,53.2 54.54,75.53 103.02,75.97 22.3,0 32.61,-2.6 63.1,-17.18l36.48 -17.18 22.3 12.46c12.46,6.87 30.05,13.74 39.08,15.02 8.55,1.72 15.86,4.28 15.86,6.44 0,1.72 -16.74,11.59 -37.32,21.9 -65.25,32.61 -132.63,80.24 -179.86,126.59 -23.58,23.59 -48.04,50.64 -54.07,60.07 -23.58,37.36 -38.61,69.97 -46.76,100.45 -7.31,27.46 -7.74,35.61 -3.87,65.66 8.15,60.07 19.3,87.56 45.07,113.3 25.74,25.76 42.48,31.32 73.81,23.61 10.72,-3 27.9,-10.75 37.77,-17.59 33.89,-23.17 85.83,-86.71 109.85,-134.34 4.75,-9.03 23.62,-41.2 42.08,-70.81 18.46,-30.05 59.22,-97.86 90.55,-151.09 80.28,-135.63 107.3,-177.67 139.91,-214.59 48.07,-55.35 84.11,-140.34 75.96,-180.23 -3.43,-17.62 -10.71,-16.34 -29.17,5.12 -18.87,21.9 -32.18,47.23 -44.64,85 -10.31,31.76 -4.71,27.45 -96.99,75.09 -68.25,35.2 -96.58,44.63 -137.34,45.94 -30.05,0.85 -36.48,-2.59 -36.48,-20.17 0,-32.21 75.96,-106.86 137.78,-134.79 27.02,-11.99 91.39,-27.02 109.01,-24.89 6.84,0.87 9,-3 11.59,-20.15 2.12,-11.59 2.56,-21.9 1.28,-23.18 -6.03,-6.02 -54.94,0.41 -93.99,12.44 -74.25,23.17 -136.9,59.66 -175.54,102.57 -22.74,25.34 -30.46,45.08 -27.9,70.82 1.28,10.3 1.28,20.61 -0.43,22.74 -6,9.87 -61.79,26.61 -88.4,26.61 -36.92,0 -46.79,-8.15 -46.79,-37.77 0,-39.48 12.46,-65.22 51.94,-106.85 30.46,-31.77 35.61,-39.49 35.61,-52.35 0,-10.75 3.44,-17.62 14.18,-27.93l14.15 -13.27 -7.71 -18.46c-4.31,-9.88 -9.87,-18.03 -11.59,-18.03 -2.16,0 -11.18,9 -20.18,20.15 -27.05,33.92 -108.58,115.88 -151.93,153.24 -47.2,40.76 -93.99,73.37 -130.91,90.55 -14.15,6.44 -40.76,19.31 -58.79,28.33 -48.91,23.59 -73.81,30.9 -98.7,28.74 -29.21,-3 -35.64,-10.71 -35.2,-41.2 0.43,-45.07 42.04,-150.21 84.55,-213.31 39.05,-57.94 95.71,-105.14 128.32,-108.13 81.56,-6.88 148.06,-9.88 293.12,-14.19 273.4,-7.27 484.12,3.44 624.46,32.21 27.05,5.15 67.81,11.15 90.15,12.43 36.45,2.59 39.48,2.16 27.89,-3 -19.74,-8.99 -122.76,-36.04 -184.54,-48.07 -117.6,-23.18 -242.08,-33.45 -377.7,-31.33 -47.2,0.44 -87.96,-0.41 -90.99,-2.12 -3.44,-2.16 -0.85,-6.88 7.74,-15.47 15.03,-15.46 15.43,-20.17 2.13,-36.92 -10.28,-12.43 -11.15,-12.43 -22.74,-6.43 -14.15,7.74 -30.9,31.76 -34.33,48.51 -1.28,6.87 -4.72,12.87 -7.31,13.74 -2.56,0.85 -56.63,4.72 -120.6,9 -63.5,3.87 -124.44,7.71 -135.19,8.59 -10.71,0.84 -34.33,2.56 -52.35,4.28 -18.46,1.28 -33.49,1.28 -33.49,0 0,-1.72 11.19,-16.74 24.9,-33.46 13.3,-16.74 32.61,-41.23 42.92,-54.5 10.3,-13.31 23.17,-28.77 28.77,-34.77 27.45,-29.61 65.22,-106.45 69.53,-141.65 2.12,-17.15 0.84,-21.87 -6.88,-29.61 -14.18,-14.15 -27.05,-11.16 -55.38,12.46l0 0 0.01 0zm37.79 19.3c0,8.59 -14.18,33.05 -42.92,72.97 -31.36,43.76 -46.35,65.22 -73.84,105.14 -12.02,17.62 -23.18,33.05 -24.89,34.33 -1.28,1.31 -6,6.87 -9.87,12.9 -15.03,21.86 -7.28,-3.88 12.02,-41.2 31.77,-60.54 89.71,-145.09 121.88,-178.14 12.87,-13.27 17.62,-15.02 17.62,-6l0 0 0 0zm-888.84 496.56c-7.72,15.02 -75.53,103.86 -95.71,125.75 -18.02,19.31 -39.05,26.62 -36.05,12.87 2.16,-10.71 127.04,-148.06 134.32,-148.06 1.31,0 0,4.28 -2.56,9.44l0 0zm1253.64 153.65c0,4.71 -3.43,16.3 -7.31,26.17 -6.43,16.74 -74.24,139.94 -112.88,205.6 -9,15.43 -21.02,36.48 -26.61,47.19 -40.77,75.13 -90.96,158.81 -102.55,170.83 -30.92,31.77 -55.82,33.46 -82,6 -27.45,-28.74 -31.32,-40.33 -30.89,-93.11 0.44,-48.51 4.72,-69.13 23.62,-113.76 32.17,-76.38 132.59,-160.09 284.52,-236.05 47.23,-23.59 54.1,-25.3 54.1,-12.87l0 0 0 0zm-1355.35 -876.82c10.28,55.78 2.13,109.88 -25.77,164.39 -8.99,17.59 -52.79,103.42 -96.98,190.98 -44.2,87.11 -82.84,161.36 -85.84,164.39 -7.31,7.71 -46.79,20.58 -121.88,39.48 -36.92,9.43 -67.38,17.15 -68.25,17.15 -3.88,0 0,-10.72 9.02,-24.9 5.56,-8.58 31.33,-51.5 57.07,-95.26 51.07,-86.28 67.38,-113.73 80.68,-135.63 4.72,-7.72 16.74,-28.33 26.18,-45.48 66.53,-116.76 100.02,-151.09 170.83,-175.54 45.04,-15.47 48.47,-23.18 8.59,-20.18 -58.38,4.71 -110.73,31.33 -163.12,82.83 -47.63,47.2 -60.94,67.38 -214.15,321.45l-77.25 128.35 -21.45 5.15c-63.94,15.43 -248.92,72.53 -299.15,92.68 -89.71,35.64 -110.29,48.95 -124.47,80.28 -15,33.45 1.31,62.22 47.66,84.11 26.18,12 31.33,13.31 71.22,12.44 76.4,-0.85 145.5,-27.46 206.03,-78.53 36.48,-30.89 140.75,-136.06 164.8,-166.11 17.15,-21.46 30.89,-28.3 73.37,-37.77 17.62,-3.84 48.51,-11.59 68.69,-17.58 65.22,-19.31 68.66,-20.18 71.66,-17.18 1.71,1.31 0.87,9.02 -2.13,16.74 -11.18,31.76 -31.33,117.6 -37.76,164.39 -8.59,59.22 -4.75,106.86 11.59,140.34 11.99,24.46 18.02,21.87 14.15,-5.59 -3.44,-27.05 4.71,-98.27 17.58,-148.93 10.75,-42.48 38.2,-119.73 53.23,-150.21 5.15,-9.87 9.02,-19.74 9.02,-21.9 0,-9.43 18.43,-18.43 56.2,-28.3 53.66,-14.18 206.87,-65.25 276.4,-91.86 165.24,-63.94 277.25,-125.76 339.07,-187.54 33.04,-32.61 47.63,-57.95 63.06,-109.45 12.03,-39.92 13.31,-112.86 2.6,-137.35l-6.44 -15.02 -3 45.07c-6.43,100.42 -21.05,136.5 -71.25,178.98 -112.45,94.84 -259.22,166.52 -504.3,246.36 -42.48,13.71 -82.84,27.02 -89.68,29.17 -6.87,2.56 -13.74,3.44 -15.02,2.16 -2.16,-2.16 49.79,-107.29 80.68,-162.24 43.35,-78.12 61.78,-116.73 69.09,-142.93 11.59,-42.05 18.87,-97.83 15.46,-118.45 -1.71,-9.87 -3.43,-22.74 -4.31,-28.74 -2.15,-17.61 -22.74,-62.25 -29.61,-63.53 -5.15,-1.28 -5.59,2.16 -2.15,19.3l0.03 0 0 0.01zm-554.53 670.38c0,7.74 -43.32,59.66 -72.53,87.55 -38.17,36.05 -65.65,54.51 -110.29,73.41 -61.78,27.02 -117.6,30.45 -148.49,9.87 -12.03,-8.16 -14.15,-12.47 -15.44,-29.62 -2.15,-30.92 12.87,-40.35 112.86,-72.52 44.63,-14.62 111.6,-36.49 148.06,-48.95 65.25,-22.74 85.86,-27.46 85.86,-19.74l-0.03 0zm-1000.82 -757.5c-57.1,12.03 -99.58,63.53 -132.19,161.36 -18.03,54.51 -23.62,85 -30.49,160.09 -5.15,62.66 -5.56,63.97 -16.3,67.81 -157.09,55.79 -302.15,144.22 -359.65,218.9 -84.56,109.86 -63.94,225.3 35.64,197.85 40.32,-11.59 74.65,-45.51 89.24,-87.99 9.46,-27.9 17.18,-81.53 13.74,-95.27 -3.43,-13.31 -10.31,-14.18 -12.87,-1.28 -0.87,5.56 -4.71,27.89 -9.02,50.19 -12.87,74.25 -41.2,109.45 -95.27,118.45 -16.74,2.59 -19.74,1.72 -31.33,-9.84 -15.03,-15.46 -16.74,-33.49 -6,-69.12 7.72,-27.02 39.92,-80.25 65.22,-108.58 38.64,-42.92 140.34,-110.29 208.59,-138.63 42.05,-17.18 88.4,-29.61 93.12,-24.89 1.71,1.72 1.31,12.03 -1.28,22.74 -21.46,89.71 -53.63,196.57 -62.22,206.44 -3,3.87 -4.72,9.87 -3.44,13.3 2.56,6.44 -11.15,39.49 -39.92,97.87 -6.44,12.86 -24.02,42.04 -39.05,65.22 -20.17,31.76 -29.61,42.07 -36.48,42.07 -4.71,0 -24.46,-6 -43.35,-12.87 -62.23,-23.61 -160.93,-33.48 -205.57,-20.61 -28.76,8.15 -29.2,13.74 -0.43,9.46 43.35,-6.46 91.83,-4.31 130.91,6 40.32,9.87 78.52,28.73 88.39,43.35 6.44,9 5.59,10.72 -11.15,33.05 -49.35,65.22 -115.45,102.14 -193.57,107.7 -39.48,3.03 -58.78,-2.56 -82.4,-24.02 -18.86,-17.18 -30.48,-39.48 -35.2,-69.09 -2.56,-15.47 -3.84,-17.62 -6.87,-10.75 -5.12,13.75 -4.28,48.51 2.15,63.97 16.75,40.33 58.82,66.94 106.46,66.94 77.24,0 162.64,-33.48 234.33,-91.83 22.3,-18.03 42.92,-32.64 45.91,-32.64 3.44,0 26.62,15.02 52.35,33.04 111.17,79.84 225.34,134.79 342.07,164.83 189.69,48.92 445.48,22.31 607.72,-63.09 28.33,-14.59 46.79,-29.61 42.04,-33.92 -1.28,-1.28 -16.3,3.87 -33.89,11.18 -40.35,16.74 -124.88,38.61 -209.87,54.07 -62.66,11.15 -73.37,12.02 -184.54,12.02 -107.29,0 -122.32,-0.87 -167.39,-10.31 -85.4,-17.58 -168.24,-48.94 -216.72,-81.99 -38.64,-26.58 -143.78,-84.12 -178.98,-98.27 -13.74,-5.59 -24.89,-11.59 -24.89,-13.74 0,-1.72 5.99,-12 13.3,-23.18 16.31,-24.46 63.1,-118.44 79.84,-160.93 46.76,-118.03 68.66,-199.56 78.97,-293.99 2.99,-26.17 6.43,-50.22 7.71,-54.07 1.28,-3.87 21.9,-21.45 45.92,-39.48 136.9,-103.01 205.15,-205.15 197.88,-295.71 -3.03,-34.36 -11.19,-52.38 -27.49,-58.38 -19.3,-7.27 -57.07,-8.59 -83.68,-3.43l0 0 0 0zm73.81 25.33c9.03,4.28 10.74,8.59 12.02,27.9 3.44,60.94 -50.66,146.77 -146.37,231.76 -27.45,24.02 -50.63,43.77 -51.91,43.77 -4.72,0 -2.59,-49.79 3.44,-90.56 14.14,-93.55 33.48,-145.06 67.81,-182.41 33.04,-36.05 78.09,-47.64 115.01,-30.46l0 0zm1708.69 -239.02l-6.31 7.5c-16.84,17.46 -69.19,16.34 -91.24,16.77 -90.08,1.78 -115.85,15.84 -183.32,25.18l-170.36 31.2c-29.87,6.19 -62.07,8.66 -91.62,15.96 -40.07,9.91 -36.64,15.56 -86.99,15.84 -42.26,0.22 -57.75,10.93 -94.77,16.99 -31.48,5.13 -59.6,7.34 -90.71,12.53l-428.96 99.39c-5.03,1.03 -30.64,5.09 -39.76,7.34 -28.55,7.06 -90.77,37.33 -124.98,37.92l38.3 10.15c40.2,4.31 40.51,4.66 80.62,-3.75 36.45,-7.65 101.17,-8.02 141.81,-11.11 46.82,-3.53 87.12,-15.37 130.72,-13.72 51.67,1.97 89.8,1.35 143.12,-3.06 44.92,-3.68 91.56,-5.96 137.66,-8.62 41.36,-2.37 37.08,-7.9 98.27,-9.84 7.21,-0.22 10.4,-0.16 17.55,-1.47 79.34,-14.55 79.47,-5.09 162.62,-6.65 51.41,-0.94 93.14,-12.4 144.27,-12.34 92.37,0.16 185.89,-19.33 279.66,-17.34l286.96 -16.11c96.68,-7.44 189.23,-8.44 285.9,-10.81l225.52 -4.47c33.77,-0.06 61.04,-5.37 76.69,11.65l5.81 -3.15c77.12,-18.68 513.2,17.99 629.71,25.05 107.7,6.5 333.1,24.39 438.37,46.1 49.07,10.12 100.95,3.47 139.43,11.56 5.19,-13.15 -5.68,-0.5 10.4,-10.77 12.12,-7.72 4.72,5.12 5,-5.53 -14.9,-20.09 -45.57,-7.97 -72.62,-14.22 -15.06,-3.49 -7.19,-4.49 -28.83,-7.74 -48.26,-7.22 -76.25,-19.62 -100.46,-23.71 -98.39,-16.58 -270.25,-44.01 -359.27,-52.26 -45.29,-4.18 -179.07,-16.52 -217.84,-28.26 -23.52,-7.13 -183.29,-10.62 -225.71,-16.06 -182.88,-23.43 -153.46,-12.06 -314.04,-9.53 -54.04,0.85 -102.86,-3.81 -158.02,-3.87 -109.48,-0.09 -215.37,-1.56 -324.76,1.53 -54.48,1.53 -113.45,-6.59 -166.86,-4.87 -55.01,1.75 -101.46,5.28 -153.68,8.68 -23.56,1.53 -20.53,3.94 -32.99,10.5 -11.43,5.99 -14.24,7.65 -31.67,3.09 -19.96,-5.25 -4.22,-7.9 -32.08,-4.81l-68.28 3.84c-15.03,5.81 -10.31,20.43 -64.91,15.21 -19.24,-1.81 -17.12,-7.02 -23.71,-7.59 59.66,-11.87 111.29,-9.09 168.74,-20.8 48.29,-9.84 126.88,5.22 171.76,-13.9l-94.21 2.25c17.43,-20.15 82.34,-22.02 109.61,-23.99 80.5,-5.81 254.95,-29.39 336.07,-40.39 169.26,-22.96 307.14,20.18 468.56,-42.85 0.6,-17.96 8.34,-18.06 -7.96,-36.14 -26.21,-29.02 -98.77,-32.71 -136.56,-31.55 -110.08,3.34 -608.19,33.99 -642.87,13.09 -0.34,-36.55 50.73,-43.58 85.4,-52.17 6.94,-17.24 -10.49,-6.27 16.9,-15.3l293.06 -48.04c79.61,-27.05 86.96,-11.68 155.08,-29.96 28.71,-7.71 45.95,-4.62 71.44,-18.4 30.89,-16.71 37.86,-10.71 39.54,-51.75 -24.05,-14.12 -54.32,-13.19 -85.77,-6.69 -17.49,3.59 -26.77,9.44 -38.86,13.06 -15.65,4.72 -29.23,2.87 -45.2,5.93 -56.5,10.94 -86.36,29.8 -168.58,36.14 -62.9,4.84 -122,22.9 -177.38,35.3 -12.53,2.81 -28.65,4.65 -45.2,8.46 -7.84,1.78 -24.43,7.12 -39.17,9.87 -64.82,12.19 -38.05,20.81 -76.72,16.72 -6.49,-9.41 -1.12,0.15 -7.4,-10.16 -12.59,-20.67 -4.78,-25.17 -19.65,-44.41 -44.45,-2.38 -81.21,39.45 -27.39,81.08 -9.59,14.9 -0.81,2.1 -5.15,18.28l-2.97 10.24c-0.16,0.38 -5.03,11.5 -5.03,11.56 -7.18,16.21 7.78,3.59 -2.97,6.37 -45.13,24.71 -48.1,4.84 -93.92,23.09 1.93,13.99 3.96,18.14 3.96,35.23 78.97,5.69 40.33,15.68 69.85,21.96 30.67,6.56 38.17,-10.28 39.35,15.55l0 0zm34.14 87.62c-44.89,19.11 -123.48,4.06 -171.77,13.9 -57.44,11.71 -109.07,8.93 -168.73,20.8 6.59,0.56 4.47,5.78 23.71,7.59 54.6,5.22 49.88,-9.4 64.9,-15.21l68.28 -3.84c27.87,-3.1 12.13,-0.44 32.08,4.81 17.43,4.56 20.25,2.9 31.68,-3.1 12.46,-6.55 9.43,-8.96 32.98,-10.49 52.23,-3.4 98.68,-6.94 153.68,-8.68 53.42,-1.72 112.39,6.4 166.87,4.87 109.38,-3.09 215.27,-1.63 324.75,-1.53 55.17,0.06 103.99,4.71 158.02,3.87 160.59,-2.53 131.16,-13.9 314.05,9.53 42.42,5.43 202.19,8.93 225.71,16.05 38.76,11.75 172.55,24.09 217.84,28.27 89.02,8.25 260.88,35.67 359.27,52.26 24.21,4.09 52.2,16.49 100.46,23.71 21.64,3.24 13.77,4.24 28.83,7.74 27.05,6.25 57.72,-5.87 72.62,14.21 -0.28,10.66 7.12,-2.18 -5,5.53 -16.08,10.28 -5.21,-2.37 -10.4,10.78 -38.48,-8.09 -90.36,-1.44 -139.44,-11.56 -105.26,-21.71 -330.66,-39.61 -438.36,-46.1 -116.51,-7.06 -552.59,-43.73 -629.71,-25.05 14.68,8.74 31.8,7.02 52.85,7.24l363.14 13.93c134.6,8.53 267.98,20.68 399.26,29.99 118.85,8.43 443.98,48.23 571.9,70.78 48.66,8.59 137.87,24.55 186.94,27.68 -11.52,-8.16 -23.83,-10.59 -37.7,-13.12l-147.81 -42.11c-9.62,-2.87 -12.49,-4.12 -23.71,-6.78 -18.08,-4.28 -17.68,-2.59 -29.14,-11.8 -11.74,2.56 -271.28,-57.91 -314.04,-65.94 -109.45,-20.52 -214.19,-35.61 -327.23,-51.6 -214.87,-30.4 -473,-57.26 -691.28,-60.23 -136.62,-1.75 -274.09,-9.15 -410.4,-8.34 -133.6,0.78 -271.32,8.34 -405.1,11.93l0 0.01zm322.17 -508.08c28.14,0.97 140.59,-12.15 166.98,-20.37 16.15,-5.03 17.12,-8.18 33.58,-12.74 14.06,-3.87 23.68,-5.47 36.05,-8.97 64.59,-18.33 33.01,-6.87 73.84,-16.05 47.69,-10.72 88.77,-30.49 147.9,-17.15l100.61 33.86c67.53,30.2 126.97,46.29 163.14,63.53 53.82,25.62 367.9,148.18 398.07,134.13l-5.12 -3.78c-33.71,-23.4 -24.24,-14.62 -59.01,-30.89 -13.21,-6.19 -22.39,-9.75 -32.01,-17.72 -8.19,-6.77 -6.5,-6.68 -15.78,-12.52 -5.75,-3.62 -10.15,-5.75 -13.99,-8.12 -62.35,-38.83 -199.79,-95.71 -270.16,-120.35 -44.73,-15.68 -89.74,-43.45 -132.22,-60.88l-106.8 -37.45c-0.99,-0.38 -2.15,-0.94 -3.12,-1.32 -9.78,-3.71 -24.67,-5.62 -39.42,-2.65l-152.46 40.64c-27.55,7.93 -49.73,11.49 -79.5,19.11 -32.79,8.44 -98.48,41.08 -143.37,50.48 -18.68,3.9 -55,15.62 -67.22,29.21l0.01 0zm484.34 609.59c-15.65,-17.02 -42.92,-11.71 -76.69,-11.65l-225.52 4.47c-96.67,2.37 -189.23,3.37 -285.9,10.81l-286.96 16.12c-93.77,-2 -187.29,17.49 -279.66,17.33 -51.13,-0.06 -92.86,11.4 -144.28,12.34 -83.15,1.56 -83.27,-7.9 -162.61,6.65 -7.15,1.32 -10.34,1.25 -17.56,1.47 -61.19,1.94 -56.91,7.47 -98.26,9.84 -46.11,2.66 -92.74,4.94 -137.66,8.62 -53.32,4.41 -91.46,5.03 -143.12,3.06 -43.61,-1.65 -83.9,10.19 -130.72,13.72 -40.64,3.09 -105.36,3.46 -141.81,11.12 -40.11,8.4 -40.42,8.06 -80.62,3.74l-38.3 -10.15c34.2,-0.59 96.43,-30.86 124.98,-37.92 9.12,-2.25 34.73,-6.31 39.76,-7.34l428.96 -99.39c31.11,-5.19 59.22,-7.4 90.71,-12.53 37.01,-6.06 52.51,-16.77 94.77,-16.99 50.35,-0.28 46.91,-5.93 86.99,-15.83 29.55,-7.31 61.75,-9.78 91.61,-15.97l170.36 -31.2c67.47,-9.34 93.24,-23.4 183.33,-25.18 22.05,-0.43 74.4,0.69 91.24,-16.77 -266.07,15.46 -540.63,65.88 -792.27,117.17 -120.72,24.61 -521.7,111.82 -637.93,156.36 -18.49,7.09 -24.39,11.25 -38.92,20.18 -34.39,21.21 -24.14,8.15 -30.26,24.83 37.6,2.1 103.76,-9.77 145.59,-12.9 338.59,-25.11 667.97,-52.29 1009.94,-71.68 392.95,-22.31 791.33,-59.82 1190.8,-52.32l0.01 -0.01zm-484.34 -609.59c12.21,-13.59 48.54,-25.3 67.21,-29.21 44.89,-9.4 110.58,-42.04 143.38,-50.48 29.77,-7.62 51.94,-11.18 79.49,-19.11l152.46 -40.64c14.75,-2.97 29.65,-1.06 39.42,2.66 0.97,0.37 2.13,0.93 3.13,1.31l106.79 37.45c42.48,17.43 87.49,45.2 132.22,60.88 70.38,24.64 207.81,81.52 270.16,120.35 3.84,2.37 8.25,4.5 13.99,8.12 9.28,5.84 7.59,5.75 15.78,12.53 9.62,7.96 18.8,11.52 32.02,17.71 34.76,16.27 25.3,7.49 59,30.89l5.12 3.78c-30.17,14.06 -344.25,-108.51 -398.06,-134.13 -36.18,-17.24 -95.62,-33.32 -163.15,-63.53l-100.61 -33.86c-59.13,-13.34 -100.2,6.44 -147.9,17.15 -40.83,9.18 -9.25,-2.28 -73.84,16.06 -12.37,3.49 -21.99,5.09 -36.05,8.96 -16.46,4.56 -17.43,7.72 -33.58,12.74 -26.39,8.22 -138.84,21.34 -166.98,20.37l0 0zm-242.68 80.49c32.58,-0.25 74.72,-14.49 106.14,-21.99l311.24 -70.9c67.78,-17.65 139.68,-32.3 209.71,-48.17 81.44,-18.49 96.27,5.03 196.79,44.07 159.33,61.88 394.69,151.62 558.15,208 33.7,11.62 59.07,21.18 94.86,31.99 32.27,9.75 66.97,27.42 100.08,32.45 -7.24,-16.99 1.5,-5.37 -17.46,-17.49 -95.05,-60.69 -245.17,-134.34 -342.62,-179.79 -125.79,-58.69 -246.11,-119.76 -382.8,-171.99 -97.83,-37.35 -104.36,-49.72 -214.37,-22.45 -151.09,37.42 -384.63,106.79 -525.98,168.48 -17.68,7.72 -27.89,12.31 -46.48,20.77l-36.6 17.78c-14.62,9.74 -3.91,1.78 -10.66,9.24l0 0zm-113.63 339.97c-1.19,-25.83 -8.69,-8.99 -39.36,-15.55 -29.52,-6.28 9.12,-16.28 -69.84,-21.96 0,-17.09 -2.03,-21.24 -3.97,-35.24 45.83,-18.24 48.79,1.63 93.93,-23.08 10.74,-2.78 -4.22,9.84 2.97,-6.37 0,-0.07 4.87,-11.18 5.03,-11.56l2.96 -10.25c4.34,-16.18 -4.43,-3.37 5.16,-18.27 -53.82,-41.64 -17.06,-83.46 27.39,-81.09 14.87,19.24 7.06,23.74 19.65,44.42 6.28,10.31 0.9,0.75 7.4,10.15 38.67,4.09 11.9,-4.53 76.71,-16.71 14.75,-2.75 31.33,-8.09 39.17,-9.87 16.56,-3.81 32.68,-5.65 45.2,-8.46 55.38,-12.41 114.48,-30.46 177.39,-35.3 82.21,-6.34 112.07,-25.21 168.58,-36.14 15.96,-3.06 29.55,-1.22 45.2,-5.93 12.09,-3.63 21.36,-9.47 38.86,-13.06 31.45,-6.5 61.72,-7.43 85.77,6.68 -1.69,41.05 -8.65,35.05 -39.55,51.76 -25.48,13.78 -42.73,10.68 -71.43,18.4 -68.13,18.27 -75.47,2.9 -155.09,29.95l-293.05 48.05c-27.4,9.02 -9.97,-1.94 -16.9,15.3 72.4,-7.68 407.78,-64.25 495.77,-83.84 49.64,-11.05 116.45,-23.05 105.27,-83.27 -33.64,-65.63 -330.17,41.39 -402.48,38.01 -13.21,12.5 -125.16,29.9 -152.36,35.86 -51.98,11.44 -108.77,31.05 -161.34,21.49 20.99,-43.6 290.28,-124.32 362.43,-138.68l127.32 -39.61c-0.75,-0.13 -2.19,-0.5 -3.03,-0.56l-36.14 6.4c-100.33,23.58 -213.34,39.67 -312.79,65.38 -35.8,9.24 -278.69,75.18 -220.68,149.37 13.21,16.9 20.89,5.71 29.64,24.52 -7.22,8.4 1.12,0.9 -6.84,6.52 -10.65,7.5 -52.1,17.28 -70.31,24.27 -154.31,59.45 10.15,89.78 93.36,98.27l0 0zm34.14 87.62c133.78,-3.59 271.5,-11.15 405.1,-11.93 136.31,-0.82 273.78,6.59 410.4,8.34 -6.34,-5.41 -4.18,-5.28 -15.77,-9.56l-51.85 -3.63c-24.02,-0.34 -48.2,-0.06 -72.25,-0.59 -84.06,-1.9 -381.17,4.87 -411.1,-9.65l18 -6.15c42.2,-10.12 22.8,-9.03 42.73,-14.94 64.62,-19.17 277.49,-1.84 376.11,-15.3 23.77,-3.22 43.51,-6.62 65.72,-10.43 29.11,-4.97 40.48,-2.5 52.94,-31.15 -161.43,63.04 -299.3,19.9 -468.57,42.86 -81.12,11 -255.57,34.58 -336.06,40.39 -27.27,1.97 -92.18,3.84 -109.61,23.99l94.21 -2.25 0 0zm316.61 -340.85c-18.53,-3.99 -124.39,16.43 -137.57,16.15 -8.62,-15.93 -0.18,-9.93 -13.46,-22.64 3.4,-2.63 2.72,-2.56 8.65,-5.56 22.21,-11.25 23.12,-3.03 35.8,-6.28 13.09,-3.31 0.65,0.19 7.84,-3.94 10.06,-5.74 -0.75,-8.24 42.89,-8.46l0 -7.9c23.36,-1.5 26.27,2.4 45.1,2.15 4.75,-16.24 -15.12,-12.62 22.74,-19.74 20.74,-3.93 29.21,-6.56 36.73,-25.11 -72.15,14.37 -341.43,95.08 -362.42,138.69 52.56,9.55 109.35,-10.06 161.33,-21.49 27.2,-5.97 139.15,-23.37 152.37,-35.86l0 -0.01zm2032.1 575.71c-3.15,-17.24 -4.97,-17.87 -6.37,-39.11 -41.7,-3.28 -154.81,-24.89 -194.29,-21.58 11.46,9.21 11.06,7.53 29.14,11.81 11.22,2.65 14.09,3.9 23.71,6.77l147.81 42.11 0 0zm-4866.39 1441.29l0 -288.99 27.26 0 0 255.08 101 0 0 33.91 -128.26 0zm254.84 -26.24c-9.37,11.23 -18.41,19.1 -27.07,23.75 -8.65,4.64 -17.93,6.92 -27.88,6.92 -16.35,0 -28.93,-5.58 -37.73,-16.81 -8.8,-11.17 -13.2,-25.5 -13.2,-42.92 0,-10.22 1.68,-19.57 4.98,-28.05 3.35,-8.48 7.7,-15.2 13.05,-20.31 5.41,-5.12 11.43,-9.02 18.18,-11.64 4.97,-1.82 12.48,-3.57 22.47,-5.32 20.37,-3.36 35.44,-7.46 45.05,-12.17 0.09,-4.85 0.14,-7.94 0.14,-9.22 0,-14.39 -2.39,-24.55 -7.17,-30.47 -6.46,-8 -16.07,-11.97 -28.79,-11.97 -11.91,0 -20.71,2.96 -26.35,8.81 -5.69,5.85 -9.85,16.21 -12.58,31.14l-24.67 -4.84c2.25,-14.87 5.93,-26.91 11.09,-36.06 5.17,-9.14 12.63,-16.14 22.38,-21.12 9.71,-4.91 21.04,-7.4 33.86,-7.4 12.72,0 23.1,2.09 31.08,6.33 7.94,4.23 13.83,9.48 17.56,15.87 3.73,6.39 6.36,14.46 7.89,24.22 0.81,6.05 1.24,16.95 1.24,32.62l0 47.09c0,32.89 0.52,53.68 1.58,62.49 1,8.81 3.11,17.22 6.17,25.3l-26.4 0c-2.54,-7.47 -4.16,-16.22 -4.88,-26.24zm-2.01 -78.7c-9.18,5.24 -22.95,9.68 -41.32,13.32 -10.42,2.08 -17.79,4.44 -22.09,7.06 -4.3,2.62 -7.6,6.46 -9.95,11.43 -2.34,5.05 -3.54,10.63 -3.54,16.82 0,9.35 2.54,17.22 7.66,23.48 5.11,6.25 12.57,9.42 22.38,9.42 9.71,0 18.36,-2.96 25.96,-8.95 7.56,-5.92 13.16,-14.06 16.69,-24.35 2.73,-8.01 4.07,-19.78 4.07,-35.32l0.14 -12.91zm105.02 104.94l-56.19 -209.48 27.02 0 31.85 125.46c3.44,13.52 6.64,27.58 9.56,42.17 2.25,-11.03 5.36,-24.28 9.42,-39.82l33.09 -127.81 25.92 0 -56.38 209.48 -24.29 0zm200.04 -26.24c-9.38,11.23 -18.42,19.1 -27.07,23.75 -8.66,4.64 -17.93,6.92 -27.88,6.92 -16.36,0 -28.93,-5.58 -37.73,-16.81 -8.8,-11.17 -13.2,-25.5 -13.2,-42.92 0,-10.22 1.67,-19.57 4.97,-28.05 3.35,-8.48 7.7,-15.2 13.06,-20.31 5.4,-5.12 11.43,-9.02 18.17,-11.64 4.97,-1.82 12.48,-3.57 22.48,-5.32 20.37,-3.36 35.43,-7.46 45.04,-12.17 0.1,-4.85 0.15,-7.94 0.15,-9.22 0,-14.39 -2.39,-24.55 -7.18,-30.47 -6.45,-8 -16.06,-11.97 -28.78,-11.97 -11.91,0 -20.71,2.96 -26.35,8.81 -5.7,5.85 -9.86,16.21 -12.58,31.14l-24.68 -4.84c2.25,-14.87 5.93,-26.91 11.1,-36.06 5.16,-9.14 12.62,-16.14 22.38,-21.12 9.71,-4.91 21.04,-7.4 33.86,-7.4 12.72,0 23.09,2.09 31.08,6.33 7.94,4.23 13.82,9.48 17.55,15.87 3.73,6.39 6.36,14.46 7.89,24.22 0.81,6.05 1.24,16.95 1.24,32.62l0 47.09c0,32.89 0.53,53.68 1.58,62.49 1.01,8.81 3.11,17.22 6.17,25.3l-26.4 0c-2.53,-7.47 -4.16,-16.22 -4.87,-26.24zm-2.01 -78.7c-9.18,5.24 -22.96,9.68 -41.32,13.32 -10.43,2.08 -17.79,4.44 -22.09,7.06 -4.31,2.62 -7.61,6.46 -9.95,11.43 -2.34,5.05 -3.54,10.63 -3.54,16.82 0,9.35 2.53,17.22 7.65,23.48 5.12,6.25 12.58,9.42 22.38,9.42 9.71,0 18.36,-2.96 25.97,-8.95 7.56,-5.92 13.15,-14.06 16.69,-24.35 2.73,-8.01 4.06,-19.78 4.06,-35.32l0.15 -12.91zm64.32 104.94l0 -209.48 22.67 0 0 29.73c10.9,-22.8 26.68,-34.17 47.29,-34.17 8.99,0 17.22,2.29 24.72,6.8 7.51,4.5 13.16,10.49 16.89,17.82 3.73,7.33 6.35,16.08 7.84,26.17 0.91,6.59 1.38,18.09 1.38,34.51l0 128.62 -25.24 0 0 -127.28c0,-14.46 -0.96,-25.29 -2.92,-32.42 -1.96,-7.13 -5.45,-12.85 -10.43,-17.15 -4.97,-4.24 -10.85,-6.39 -17.55,-6.39 -10.71,0 -19.94,4.77 -27.73,14.39 -7.8,9.55 -11.67,27.78 -11.67,54.56l0 114.29 -25.25 0zm255.7 0l0 -26.58c-9.42,20.66 -23.29,31.01 -41.6,31.01 -11.87,0 -22.77,-4.57 -32.67,-13.78 -9.94,-9.15 -17.64,-22 -23.14,-38.42 -5.45,-16.48 -8.18,-35.38 -8.18,-56.77 0,-20.85 2.49,-39.76 7.41,-56.77 4.98,-16.96 12.39,-30 22.29,-39.02 9.85,-9.08 20.94,-13.59 33.14,-13.59 8.99,0 16.97,2.69 23.96,8.01 6.98,5.31 12.67,12.31 17.07,20.85l0 -103.93 25.25 0 0 288.99 -23.53 0zm-79.77 -104.47c0,26.77 4.02,46.75 12.1,60 8.04,13.25 17.55,19.85 28.5,19.85 11.05,0 20.42,-6.33 28.17,-18.97 7.7,-12.65 11.57,-31.96 11.57,-57.92 0,-28.52 -3.92,-49.51 -11.81,-62.9 -7.84,-13.39 -17.55,-20.04 -29.07,-20.04 -11.24,0 -20.62,6.39 -28.17,19.23 -7.51,12.85 -11.29,33.1 -11.29,60.75zm244.8 36.66l26.11 4.84c-4.06,21.33 -11.67,37.94 -22.76,49.71 -11.1,11.77 -25.25,17.69 -42.51,17.69 -21.72,0 -38.93,-9.41 -51.65,-28.25 -12.72,-18.77 -19.08,-45.2 -19.08,-79.17 0,-35.12 6.4,-62.43 19.27,-81.8 12.86,-19.44 29.55,-29.13 50.07,-29.13 19.85,0 36.06,9.49 48.63,28.52 12.58,19.04 18.89,45.81 18.89,80.32 0,2.09 -0.05,5.25 -0.14,9.42l-110.9 0c0.96,22.94 5.55,40.56 13.87,52.74 8.27,12.17 18.65,18.3 31.04,18.3 9.22,0 17.12,-3.44 23.62,-10.3 6.55,-6.86 11.72,-17.82 15.54,-32.89zm-82.63 -56.91l82.92 0c-1.1,-17.62 -4.31,-30.81 -9.52,-39.62 -7.98,-13.66 -18.41,-20.52 -31.18,-20.52 -11.57,0 -21.28,5.45 -29.17,16.35 -7.84,10.9 -12.19,25.49 -13.05,43.79zm140.35 124.72l0 -209.48 22.67 0 0 32.09c5.79,-14.87 11.14,-24.69 16.07,-29.4 4.92,-4.77 10.33,-7.13 16.21,-7.13 8.51,0 17.17,3.77 25.97,11.24l-9 32.76c-6.11,-4.85 -12.24,-7.27 -18.36,-7.27 -5.5,0 -10.42,2.35 -14.78,7 -4.35,4.64 -7.45,11.1 -9.32,19.37 -2.82,12.58 -4.21,26.37 -4.21,41.37l0 109.45 -25.25 0zm95.84 -248.63l0 -40.36 25.25 0 0 40.36 -25.25 0zm0 248.63l0 -209.48 25.25 0 0 209.48 -25.25 0zm161.01 -26.24c-9.37,11.23 -18.41,19.1 -27.07,23.75 -8.65,4.64 -17.93,6.92 -27.88,6.92 -16.35,0 -28.93,-5.58 -37.73,-16.81 -8.8,-11.17 -13.2,-25.5 -13.2,-42.92 0,-10.22 1.68,-19.57 4.98,-28.05 3.35,-8.48 7.7,-15.2 13.05,-20.31 5.41,-5.12 11.43,-9.02 18.18,-11.64 4.97,-1.82 12.48,-3.57 22.47,-5.32 20.37,-3.36 35.44,-7.46 45.05,-12.17 0.09,-4.85 0.14,-7.94 0.14,-9.22 0,-14.39 -2.39,-24.55 -7.17,-30.47 -6.46,-8 -16.07,-11.97 -28.79,-11.97 -11.91,0 -20.71,2.96 -26.35,8.81 -5.69,5.85 -9.85,16.21 -12.58,31.14l-24.67 -4.84c2.24,-14.87 5.93,-26.91 11.09,-36.06 5.17,-9.14 12.63,-16.14 22.38,-21.12 9.71,-4.91 21.04,-7.4 33.86,-7.4 12.72,0 23.1,2.09 31.08,6.33 7.94,4.23 13.82,9.48 17.55,15.87 3.73,6.39 6.37,14.46 7.9,24.22 0.81,6.05 1.24,16.95 1.24,32.62l0 47.09c0,32.89 0.52,53.68 1.58,62.49 1,8.81 3.11,17.22 6.17,25.3l-26.4 0c-2.54,-7.47 -4.16,-16.22 -4.88,-26.24zm-2.01 -78.7c-9.18,5.24 -22.95,9.68 -41.32,13.32 -10.42,2.08 -17.79,4.44 -22.09,7.06 -4.3,2.62 -7.6,6.46 -9.95,11.43 -2.34,5.05 -3.54,10.63 -3.54,16.82 0,9.35 2.54,17.22 7.66,23.48 5.11,6.25 12.57,9.42 22.38,9.42 9.71,0 18.36,-2.96 25.96,-8.95 7.56,-5.92 13.16,-14.06 16.69,-24.35 2.73,-8.01 4.07,-19.78 4.07,-35.32l0.14 -12.91zm147.2 104.94l0 -288.99 70.77 0c15.98,0 28.17,1.35 36.59,4.1 11.76,3.84 21.8,10.77 30.12,20.72 10.86,12.92 18.94,29.33 24.3,49.38 5.4,20.04 8.08,42.98 8.08,68.75 0,21.93 -1.82,41.37 -5.45,58.32 -3.64,16.95 -8.32,31.01 -14.01,42.11 -5.74,11.1 -11.96,19.84 -18.75,26.16 -6.74,6.4 -14.92,11.24 -24.48,14.53 -9.62,3.3 -20.62,4.92 -33.05,4.92l-74.12 0zm27.26 -33.91l43.8 0c13.53,0 24.15,-1.75 31.85,-5.31 7.7,-3.57 13.82,-8.55 18.41,-15 6.41,-9.08 11.43,-21.33 15.02,-36.66 3.58,-15.34 5.4,-33.91 5.4,-55.77 0,-30.27 -3.54,-53.54 -10.57,-69.82 -7.03,-16.28 -15.59,-27.18 -25.68,-32.7 -7.27,-3.97 -18.98,-5.92 -35.15,-5.92l-43.08 0 0 221.18zm176.5 33.91l0 -209.48 22.67 0 0 32.09c5.79,-14.87 11.14,-24.69 16.07,-29.4 4.92,-4.77 10.33,-7.13 16.21,-7.13 8.51,0 17.17,3.77 25.97,11.24l-8.99 32.76c-6.12,-4.85 -12.24,-7.27 -18.37,-7.27 -5.49,0 -10.42,2.35 -14.77,7 -4.35,4.64 -7.46,11.1 -9.33,19.37 -2.82,12.58 -4.21,26.37 -4.21,41.37l0 109.45 -25.25 0zm94.69 80.52l-2.87 -32.83c5.55,2.08 10.33,3.16 14.44,3.16 5.65,0 10.14,-1.35 13.49,-3.97 3.39,-2.62 6.17,-6.32 8.32,-11.03 1.58,-3.57 4.16,-12.38 7.7,-26.51 0.48,-1.95 1.19,-4.84 2.25,-8.67l-56.53 -210.15 26.97 0 31.09 120.95c4.06,15.27 7.65,31.41 10.85,48.37 2.92,-15.95 6.36,-31.69 10.38,-47.16l31.75 -122.16 25.2 0 -56.28 213.11c-6.07,22.94 -10.81,38.68 -14.2,47.35 -4.5,11.64 -9.66,20.19 -15.45,25.63 -5.83,5.45 -12.77,8.14 -20.8,8.14 -4.88,0 -10.33,-1.41 -16.31,-4.23zm373.82 -181.9l27.26 9.69c-5.69,31.41 -15.93,55.29 -30.7,71.77 -14.78,16.48 -32.86,24.76 -54.23,24.76 -22.09,0 -40.08,-6.33 -53.94,-19.04 -13.87,-12.64 -24.39,-31.01 -31.61,-55.02 -7.23,-24.09 -10.86,-49.85 -10.86,-77.43 0,-30.07 4.07,-56.3 12.24,-78.7 8.18,-22.4 19.8,-39.42 34.86,-51.06 15.07,-11.64 31.66,-17.42 49.74,-17.42 20.56,0 37.83,7.33 51.79,22.06 14.01,14.73 23.77,35.39 29.27,62.02l-26.69 8.88c-4.73,-20.98 -11.67,-36.32 -20.7,-45.87 -9.04,-9.62 -20.43,-14.4 -34.15,-14.4 -15.73,0 -28.93,5.32 -39.5,15.94 -10.57,10.63 -18.03,24.96 -22.28,42.85 -4.31,17.96 -6.46,36.46 -6.46,55.5 0,24.55 2.53,46.01 7.6,64.31 5.07,18.36 12.96,32.02 23.67,41.1 10.72,9.08 22.29,13.59 34.77,13.59 15.21,0 28.02,-6.19 38.54,-18.5 10.53,-12.38 17.65,-30.68 21.38,-55.03zm57.15 101.38l0 -288.99 25.25 0 0 288.99 -25.25 0zm165.89 -67.81l26.11 4.84c-4.07,21.33 -11.67,37.94 -22.76,49.71 -11.1,11.77 -25.25,17.69 -42.52,17.69 -21.71,0 -38.92,-9.41 -51.64,-28.25 -12.72,-18.77 -19.08,-45.2 -19.08,-79.17 0,-35.12 6.4,-62.43 19.27,-81.8 12.86,-19.44 29.55,-29.13 50.07,-29.13 19.84,0 36.05,9.49 48.63,28.52 12.58,19.04 18.89,45.81 18.89,80.32 0,2.09 -0.05,5.25 -0.14,9.42l-110.9 0c0.96,22.94 5.55,40.56 13.87,52.74 8.27,12.17 18.65,18.3 31.03,18.3 9.23,0 17.13,-3.44 23.63,-10.3 6.55,-6.86 11.71,-17.82 15.54,-32.89zm-82.64 -56.91l82.93 0c-1.1,-17.62 -4.31,-30.81 -9.52,-39.62 -7.99,-13.66 -18.41,-20.52 -31.18,-20.52 -11.57,0 -21.28,5.45 -29.17,16.35 -7.84,10.9 -12.19,25.49 -13.06,43.79zm237.92 98.48c-9.38,11.23 -18.42,19.1 -27.07,23.75 -8.66,4.64 -17.93,6.92 -27.88,6.92 -16.36,0 -28.93,-5.58 -37.73,-16.81 -8.8,-11.17 -13.2,-25.5 -13.2,-42.92 0,-10.22 1.67,-19.57 4.97,-28.05 3.35,-8.48 7.7,-15.2 13.06,-20.31 5.4,-5.12 11.43,-9.02 18.17,-11.64 4.97,-1.82 12.48,-3.57 22.48,-5.32 20.37,-3.36 35.43,-7.46 45.04,-12.17 0.1,-4.85 0.15,-7.94 0.15,-9.22 0,-14.39 -2.39,-24.55 -7.18,-30.47 -6.45,-8 -16.06,-11.97 -28.78,-11.97 -11.91,0 -20.71,2.96 -26.35,8.81 -5.7,5.85 -9.86,16.21 -12.58,31.14l-24.68 -4.84c2.25,-14.87 5.93,-26.91 11.1,-36.06 5.16,-9.14 12.62,-16.14 22.38,-21.12 9.71,-4.91 21.04,-7.4 33.86,-7.4 12.72,0 23.09,2.09 31.08,6.33 7.94,4.23 13.82,9.48 17.55,15.87 3.73,6.39 6.36,14.46 7.89,24.22 0.81,6.05 1.24,16.95 1.24,32.62l0 47.09c0,32.89 0.53,53.68 1.58,62.49 1.01,8.81 3.11,17.22 6.17,25.3l-26.4 0c-2.53,-7.47 -4.16,-16.22 -4.87,-26.24zm-2.01 -78.7c-9.18,5.24 -22.96,9.68 -41.32,13.32 -10.43,2.08 -17.79,4.44 -22.09,7.06 -4.31,2.62 -7.61,6.46 -9.95,11.43 -2.34,5.05 -3.54,10.63 -3.54,16.82 0,9.35 2.54,17.22 7.65,23.48 5.12,6.25 12.58,9.42 22.38,9.42 9.71,0 18.37,-2.96 25.97,-8.95 7.56,-5.92 13.15,-14.06 16.69,-24.35 2.73,-8.01 4.06,-19.78 4.06,-35.32l0.15 -12.91zm64.32 104.94l0 -209.48 22.67 0 0 29.73c10.9,-22.8 26.68,-34.17 47.29,-34.17 8.99,0 17.22,2.29 24.72,6.8 7.51,4.5 13.16,10.49 16.89,17.82 3.73,7.33 6.36,16.08 7.84,26.17 0.91,6.59 1.39,18.09 1.39,34.51l0 128.62 -25.25 0 0 -127.28c0,-14.46 -0.96,-25.29 -2.92,-32.42 -1.96,-7.13 -5.45,-12.85 -10.43,-17.15 -4.97,-4.24 -10.85,-6.39 -17.55,-6.39 -10.71,0 -19.94,4.77 -27.73,14.39 -7.8,9.55 -11.67,27.78 -11.67,54.56l0 114.29 -25.25 0zm159.58 -248.63l0 -40.36 25.25 0 0 40.36 -25.25 0zm0 248.63l0 -209.48 25.25 0 0 209.48 -25.25 0zm63.74 0l0 -209.48 22.67 0 0 29.73c10.91,-22.8 26.69,-34.17 47.3,-34.17 8.99,0 17.21,2.29 24.72,6.8 7.51,4.5 13.15,10.49 16.88,17.82 3.73,7.33 6.36,16.08 7.84,26.17 0.91,6.59 1.39,18.09 1.39,34.51l0 128.62 -25.25 0 0 -127.28c0,-14.46 -0.96,-25.29 -2.91,-32.42 -1.97,-7.13 -5.46,-12.85 -10.43,-17.15 -4.97,-4.24 -10.86,-6.39 -17.55,-6.39 -10.71,0 -19.94,4.77 -27.74,14.39 -7.79,9.55 -11.67,27.78 -11.67,54.56l0 114.29 -25.25 0zm154.95 17.35l24.38 4.84c1.01,10.63 3.88,18.37 8.56,23.28 6.27,6.52 14.83,9.82 25.68,9.82 11.67,0 20.71,-3.3 27.07,-9.82 6.36,-6.53 10.67,-15.74 12.91,-27.51 1.29,-7.2 1.92,-22.34 1.82,-45.41 -11.04,18.3 -24.77,27.45 -41.22,27.45 -20.47,0 -36.35,-10.36 -47.54,-31.15 -11.23,-20.72 -16.83,-45.61 -16.83,-74.6 0,-19.98 2.58,-38.41 7.7,-55.29 5.12,-16.89 12.58,-29.87 22.33,-39.09 9.76,-9.21 21.24,-13.79 34.44,-13.79 17.55,0 32.03,10.09 43.42,30.27l0 -25.83 23.24 0 0 180.89c0,32.62 -2.34,55.69 -7.08,69.28 -4.69,13.59 -12.19,24.35 -22.38,32.22 -10.23,7.87 -22.81,11.84 -37.73,11.84 -17.74,0 -32.04,-5.58 -42.94,-16.81 -10.96,-11.17 -16.22,-28.06 -15.83,-50.59zm20.66 -125.66c0,27.38 3.87,47.36 11.62,59.94 7.79,12.58 17.5,18.9 29.17,18.9 11.62,0 21.32,-6.25 29.22,-18.77 7.84,-12.51 11.76,-32.15 11.76,-58.92 0,-25.56 -4.06,-44.87 -12.15,-57.85 -8.08,-12.99 -17.83,-19.44 -29.22,-19.44 -11.23,0 -20.75,6.39 -28.64,19.17 -7.84,12.78 -11.76,31.75 -11.76,56.97z"/>
 </g>
</svg>
