<?xml version="1.0" encoding="UTF-8"?>
<!DOCTYPE svg PUBLIC "-//W3C//DTD SVG 1.1//EN" "http://www.w3.org/Graphics/SVG/1.1/DTD/svg11.dtd">
<!-- Creator: CorelDRAW 2020 (64-Bit) -->
<svg xmlns="http://www.w3.org/2000/svg" xml:space="preserve" width="1878px" height="768px" version="1.1" shape-rendering="geometricPrecision" text-rendering="geometricPrecision" image-rendering="optimizeQuality" fill-rule="evenodd" clip-rule="evenodd"
viewBox="0 0 1878 767.74"
 xmlns:xlink="http://www.w3.org/1999/xlink"
 xmlns:xodm="http://www.corel.com/coreldraw/odm/2003">
 <g id="Capa_x0020_1">
  <metadata id="CorelCorpID_0Corel-Layer"/>
  <g id="Imagen-de-WhatsApp-2024-04-09-a-las-16.16.47_dbc03e2a.svg">
   <g id="La_x0020_Antigueña">
    <path  fill-rule="nonzero" d="M258.48 286.38c-18.28,3.85 -31.88,20.34 -42.32,51.66 -5.77,17.45 -7.56,27.21 -9.75,51.25 -1.65,20.06 -1.79,20.47 -5.23,21.71 -50.28,17.86 -96.72,46.16 -115.13,70.07 -27.06,35.17 -20.47,72.13 11.41,63.33 12.91,-3.71 23.9,-14.56 28.57,-28.16 3.03,-8.93 5.5,-26.11 4.4,-30.5 -1.1,-4.26 -3.3,-4.54 -4.12,-0.42 -0.28,1.79 -1.51,8.94 -2.89,16.08 -4.12,23.77 -13.19,35.03 -30.5,37.92 -5.36,0.82 -6.32,0.55 -10.03,-3.16 -4.81,-4.95 -5.36,-10.72 -1.92,-22.12 2.47,-8.66 12.78,-25.69 20.88,-34.76 12.37,-13.74 44.93,-35.31 66.77,-44.38 13.47,-5.49 28.31,-9.48 29.82,-7.97 0.55,0.55 0.41,3.85 -0.41,7.28 -6.87,28.72 -17.18,62.93 -19.93,66.09 -0.96,1.24 -1.51,3.16 -1.1,4.26 0.83,2.06 -3.57,12.64 -12.77,31.32 -2.06,4.13 -7.7,13.47 -12.51,20.89 -6.45,10.17 -9.48,13.46 -11.67,13.46 -1.52,0 -7.84,-1.92 -13.88,-4.12 -19.92,-7.56 -51.52,-10.72 -65.81,-6.59 -9.21,2.61 -9.34,4.39 -0.14,3.02 13.88,-2.06 29.4,-1.38 41.91,1.92 12.91,3.16 25.14,9.21 28.3,13.88 2.06,2.88 1.78,3.43 -3.57,10.58 -15.8,20.88 -36.96,32.7 -61.97,34.48 -12.64,0.96 -18.82,-0.82 -26.38,-7.69 -6.04,-5.5 -9.75,-12.64 -11.26,-22.12 -0.83,-4.95 -1.24,-5.63 -2.2,-3.44 -1.65,4.4 -1.37,15.53 0.69,20.48 5.35,12.91 18.82,21.43 34.07,21.43 24.73,0 52.07,-10.72 75.02,-29.4 7.14,-5.77 13.73,-10.45 14.7,-10.45 1.1,0 8.51,4.81 16.76,10.58 35.58,25.56 72.13,43.15 109.5,52.76 60.73,15.66 142.61,7.15 194.54,-20.19 9.07,-4.68 14.98,-9.48 13.47,-10.86 -0.41,-0.41 -5.22,1.24 -10.86,3.57 -12.91,5.36 -39.98,12.37 -67.18,17.32 -20.06,3.57 -23.49,3.84 -59.08,3.84 -34.34,0 -39.15,-0.27 -53.58,-3.29 -27.34,-5.64 -53.86,-15.67 -69.38,-26.25 -12.37,-8.51 -46.03,-26.92 -57.29,-31.46 -4.4,-1.78 -7.97,-3.71 -7.97,-4.4 0,-0.55 1.92,-3.84 4.26,-7.42 5.22,-7.83 20.19,-37.92 25.55,-51.52 14.98,-37.78 21.98,-63.88 25.28,-94.11 0.96,-8.38 2.06,-16.07 2.47,-17.31 0.42,-1.24 7.01,-6.87 14.7,-12.64 43.83,-32.97 65.68,-65.67 63.34,-94.66 -0.96,-10.99 -3.57,-16.76 -8.79,-18.69 -6.18,-2.33 -18.27,-2.75 -26.79,-1.1l0 0zm23.63 8.11c2.88,1.37 3.43,2.75 3.84,8.93 1.1,19.51 -16.21,46.99 -46.85,74.19 -8.79,7.69 -16.21,14.01 -16.62,14.01 -1.51,0 -0.82,-15.93 1.1,-28.99 4.53,-29.95 10.72,-46.43 21.71,-58.39 10.58,-11.54 25,-15.25 36.82,-9.75z"/>
    <path  fill-rule="nonzero" d="M756.38 314.27c3.3,17.86 0.69,35.18 -8.24,52.62 -2.89,5.64 -16.9,33.11 -31.05,61.14 -14.15,27.89 -26.52,51.66 -27.48,52.62 -2.34,2.48 -14.98,6.6 -39.02,12.64 -11.82,3.03 -21.57,5.5 -21.85,5.5 -1.23,0 0,-3.44 2.89,-7.97 1.79,-2.75 10.03,-16.49 18.27,-30.5 16.35,-27.62 21.57,-36.41 25.83,-43.42 1.51,-2.47 5.36,-9.06 8.38,-14.56 21.3,-37.37 32.01,-48.36 54.68,-56.19 14.43,-4.95 15.53,-7.42 2.75,-6.46 -18.68,1.51 -35.45,10.03 -52.21,26.52 -15.25,15.11 -19.51,21.57 -68.55,102.9l-24.73 41.08 -6.87 1.65c-20.48,4.95 -79.69,23.22 -95.77,29.68 -28.71,11.4 -35.31,15.66 -39.84,25.69 -4.81,10.72 0.41,19.92 15.25,26.93 8.38,3.84 10.03,4.26 22.81,3.98 24.45,-0.27 46.57,-8.79 65.94,-25.14 11.68,-9.89 45.07,-43.55 52.76,-53.17 5.5,-6.87 9.9,-9.07 23.5,-12.09 5.63,-1.24 15.52,-3.71 21.98,-5.63 20.88,-6.19 21.98,-6.46 22.94,-5.5 0.55,0.41 0.28,2.89 -0.68,5.36 -3.58,10.17 -10.03,37.64 -12.09,52.62 -2.75,18.96 -1.52,34.21 3.71,44.93 3.84,7.83 5.77,7 4.53,-1.79 -1.1,-8.66 1.51,-31.46 5.63,-47.67 3.44,-13.61 12.23,-38.34 17.04,-48.09 1.65,-3.16 2.88,-6.32 2.88,-7.01 0,-3.02 5.91,-5.91 18,-9.07 17.18,-4.53 66.23,-20.88 88.48,-29.4 52.9,-20.47 88.76,-40.25 108.54,-60.04 10.58,-10.44 15.25,-18.54 20.2,-35.03 3.84,-12.78 4.26,-36.14 0.82,-43.97l-2.06 -4.81 -0.96 14.43c-2.06,32.15 -6.73,43.69 -22.81,57.29 -35.99,30.37 -82.98,53.31 -161.43,78.86 -13.6,4.4 -26.52,8.66 -28.72,9.35 -2.19,0.82 -4.39,1.1 -4.81,0.68 -0.68,-0.68 15.94,-34.34 25.83,-51.93 13.88,-25 19.79,-37.37 22.12,-45.75 3.71,-13.46 6.05,-31.33 4.95,-37.92 -0.55,-3.16 -1.1,-7.28 -1.37,-9.21 -0.69,-5.63 -7.29,-19.92 -9.48,-20.33 -1.65,-0.41 -1.79,0.69 -0.69,6.18l0 0zm-177.51 214.61c0,2.47 -13.87,19.09 -23.22,28.02 -12.22,11.55 -21.02,17.45 -35.31,23.5 -19.78,8.65 -37.64,9.75 -47.53,3.16 -3.85,-2.61 -4.54,-3.99 -4.95,-9.48 -0.69,-9.89 4.12,-12.92 36.13,-23.22 14.29,-4.67 35.73,-11.68 47.4,-15.66 20.89,-7.28 27.48,-8.8 27.48,-6.32l0 0z"/>
    <path fill-rule="nonzero" d="M1061.39 380.63c-11.95,10.03 -35.72,42.04 -63.89,86.28 -2.06,3.16 -5.22,6.46 -6.87,7.15 -2.75,1.1 -17.58,3.84 -49.05,9.07 -21.02,3.43 -24.73,4.25 -25.69,5.08 -1.23,1.37 3.02,1.24 25.69,-0.96 21.85,-1.93 40.81,-1.79 42.87,0.27 2.06,2.06 -7.28,18.55 -20.61,36.41 -13.19,17.45 -15.52,20.2 -27.75,29.82 -18.69,14.97 -31.46,21.84 -48.36,25.96 -12.64,3.02 -24.46,3.71 -28.44,1.51 -1.38,-0.68 -3.3,-3.16 -4.13,-5.35 -1.51,-3.44 -1.37,-4.95 1.1,-10.31 1.51,-3.43 4.81,-9.48 7.42,-13.46 10.31,-15.8 21.98,-36.14 23.91,-41.63 1.1,-3.3 1.78,-9.07 1.51,-13.06 -0.55,-9.47 -4.67,-12.91 -15.25,-12.91 -9.48,0 -27.75,8.38 -46.58,21.57 -3.16,2.06 -4.39,0.55 -2.33,-2.88 1.37,-2.2 1.37,-4.4 0,-10.86 -0.96,-4.39 -2.34,-9.07 -3.02,-10.3 -1.79,-3.44 -11.41,-5.77 -15.25,-3.71 -4.81,2.61 -18.96,13.88 -18.96,15.11 0,1.92 2.19,1.38 4.26,-0.96 3.98,-4.81 14.83,-7.97 18.82,-5.5 2.88,1.79 1.78,7.29 -2.75,14.16 -2.47,3.57 -16.9,18.96 -32.01,34.07 -15.25,15.11 -29.4,30.09 -31.46,33.25 -7.7,11.54 -9.62,22.25 -4.95,28.3 8.11,10.17 19.1,4.12 33.39,-18.41 8.1,-13.05 32.28,-40.81 45.2,-52.07 6.73,-5.77 15.8,-12.37 20.06,-14.43 4.26,-2.06 8.1,-4.26 8.51,-4.67 2.2,-2.88 10.72,-7.56 16.49,-9.07 5.91,-1.51 12.37,-1.51 12.37,0.14 0,0.28 -4.54,6.46 -10.03,13.88 -14.98,20.19 -18.28,25.96 -22.12,39.57 -4.54,15.66 -4.81,28.99 -0.69,34.21 6.46,8.24 34.35,10.3 50.97,3.71 7.15,-2.75 42.46,-27.76 52.07,-36.69 4.81,-4.53 7.29,-4.26 6.19,0.41 -2.61,12.09 -3.03,31.19 -0.83,38.61 2.75,9.07 6.6,12.23 15.8,13.33 22.95,2.88 57.98,-8.79 75.57,-25.42 7.96,-7.42 25,-20.61 26.65,-20.61 0.82,0 3.3,3.85 5.36,8.66 7.83,17.03 17.45,24.18 32.97,24.32 7.15,0 10.44,-0.83 20.2,-5.5l11.68 -5.5 7.14 3.99c3.98,2.2 9.62,4.4 12.5,4.81 2.75,0.55 5.09,1.37 5.09,2.06 0,0.55 -5.36,3.71 -11.96,7.01 -20.88,10.44 -42.45,25.69 -57.56,40.53 -7.56,7.55 -15.39,16.21 -17.31,19.23 -7.56,11.95 -12.37,22.4 -14.98,32.15 -2.34,8.79 -2.47,11.4 -1.24,21.02 2.61,19.24 6.19,28.03 14.43,36.27 8.24,8.25 13.6,10.03 23.63,7.56 3.44,-0.96 8.93,-3.44 12.09,-5.64 10.85,-7.41 27.48,-27.75 35.17,-43 1.51,-2.88 7.56,-13.19 13.47,-22.67 5.91,-9.61 18.96,-31.32 28.99,-48.36 25.69,-43.41 34.34,-56.88 44.79,-68.69 15.38,-17.73 26.92,-44.93 24.31,-57.71 -1.09,-5.63 -3.43,-5.22 -9.34,1.65 -6.04,7.01 -10.3,15.11 -14.29,27.2 -3.29,10.17 -1.51,8.8 -31.05,24.05 -21.84,11.26 -30.91,14.29 -43.96,14.7 -9.62,0.27 -11.68,-0.83 -11.68,-6.46 0,-10.3 24.32,-34.21 44.1,-43.14 8.66,-3.85 29.27,-8.66 34.9,-7.97 2.2,0.28 2.88,-0.96 3.71,-6.46 0.69,-3.71 0.82,-7 0.41,-7.42 -1.92,-1.92 -17.58,0.14 -30.09,3.99 -23.77,7.42 -43.82,19.1 -56.19,32.83 -7.28,8.11 -9.75,14.43 -8.93,22.67 0.41,3.3 0.41,6.6 -0.14,7.29 -1.92,3.16 -19.78,8.51 -28.3,8.51 -11.82,0 -14.98,-2.61 -14.98,-12.09 0,-12.64 3.99,-20.88 16.63,-34.21 9.75,-10.16 11.4,-12.64 11.4,-16.76 0,-3.43 1.1,-5.63 4.54,-8.93l4.53 -4.26 -2.47 -5.91c-1.38,-3.16 -3.16,-5.77 -3.71,-5.77 -0.69,0 -3.57,2.89 -6.46,6.46 -8.66,10.86 -34.76,37.1 -48.64,49.05 -15.11,13.05 -30.08,23.49 -41.9,28.99 -4.53,2.06 -13.05,6.18 -18.82,9.07 -15.67,7.55 -23.63,9.89 -31.6,9.2 -9.35,-0.96 -11.41,-3.43 -11.27,-13.19 0.14,-14.42 13.46,-48.08 27.07,-68.28 12.5,-18.55 30.64,-33.66 41.08,-34.62 26.1,-2.2 47.4,-3.16 93.83,-4.54 87.52,-2.33 154.98,1.1 199.91,10.31 8.65,1.65 21.71,3.57 28.85,3.98 11.68,0.83 12.64,0.69 8.93,-0.96 -6.32,-2.88 -39.29,-11.54 -59.08,-15.39 -37.64,-7.42 -77.49,-10.71 -120.9,-10.03 -15.11,0.14 -28.17,-0.14 -29.13,-0.68 -1.1,-0.69 -0.27,-2.2 2.48,-4.95 4.8,-4.95 4.94,-6.46 0.68,-11.82 -3.29,-3.98 -3.57,-3.98 -7.28,-2.06 -4.53,2.48 -9.89,10.17 -10.99,15.53 -0.41,2.2 -1.51,4.12 -2.34,4.39 -0.82,0.28 -18.13,1.52 -38.6,2.89 -20.34,1.24 -39.85,2.47 -43.28,2.75 -3.44,0.27 -10.99,0.82 -16.76,1.37 -5.91,0.41 -10.72,0.41 -10.72,0 0,-0.55 3.57,-5.36 7.97,-10.71 4.26,-5.36 10.44,-13.19 13.74,-17.45 3.3,-4.26 7.42,-9.21 9.2,-11.13 8.8,-9.48 20.89,-34.08 22.26,-45.34 0.69,-5.5 0.28,-7.01 -2.2,-9.48 -4.53,-4.54 -8.65,-3.57 -17.72,3.98l0 0zm12.09 6.18c0,2.75 -4.54,10.58 -13.74,23.36 -10.03,14.02 -14.84,20.89 -23.63,33.66 -3.85,5.64 -7.42,10.58 -7.97,10.99 -0.41,0.42 -1.92,2.2 -3.16,4.13 -4.81,7 -2.34,-1.24 3.85,-13.19 10.16,-19.38 28.71,-46.44 39.02,-57.02 4.12,-4.26 5.63,-4.81 5.63,-1.93l0 0zm-284.54 158.97c-2.47,4.8 -24.18,33.24 -30.64,40.25 -5.77,6.18 -12.5,8.52 -11.54,4.12 0.69,-3.43 40.67,-47.4 43.01,-47.4 0.41,0 0,1.38 -0.83,3.03zm401.32 49.18c0,1.51 -1.1,5.22 -2.33,8.38 -2.07,5.36 -23.77,44.79 -36.14,65.81 -2.88,4.95 -6.73,11.68 -8.52,15.12 -13.05,24.04 -29.12,50.83 -32.83,54.68 -9.9,10.17 -17.86,10.71 -26.24,1.92 -8.8,-9.2 -10.03,-12.91 -9.9,-29.81 0.14,-15.53 1.52,-22.12 7.56,-36.41 10.3,-24.46 42.45,-51.25 91.09,-75.57 15.11,-7.55 17.31,-8.1 17.31,-4.12l0 0z"/>
    <path  fill-rule="nonzero" d="M1607.93 444.11c-2.61,0.68 -7.15,3.16 -10.03,5.22l-5.36 3.85 21.43 -0.69c23.36,-0.96 36.55,1.23 41.5,6.59 1.65,1.79 4.12,2.61 8.1,2.61 5.91,0 10.72,-2.74 21.3,-12.22l4.81 -4.4 -5.5 0.82c-14.84,2.34 -26.24,2.2 -38.74,-0.55 -13.47,-3.02 -29.4,-3.57 -37.51,-1.23l0 0z"/>
    <path  fill-rule="nonzero" d="M1378.49 486.01c-3.16,5.91 -9.35,17.17 -13.47,25.14 -25.42,48.91 -25.83,49.46 -42.04,57.57 -10.3,5.36 -23.9,7.42 -27.61,4.26 -6.05,-5.08 2.33,-29.4 20.6,-59.08 3.71,-5.91 5.91,-12.5 5.23,-14.84 -0.42,-0.82 -2.07,-1.65 -3.85,-1.65 -2.34,0 -4.95,2.75 -11.13,11.96 -16.9,25.55 -31.74,42.04 -44.79,50.28 -2.2,1.38 -3.85,2.89 -3.85,3.58 0,1.64 10.72,5.49 16.49,6.04 3.98,0.28 4.95,0.96 5.22,3.71 1.1,8.93 3.16,12.23 8.24,13.74 11.27,3.02 20.61,0.82 37.37,-9.21 8.93,-5.35 12.23,-5.63 17.45,-1.23 8.66,7.28 12.51,8.38 27.89,8.24 11.41,-0.14 16.22,-0.69 22.67,-3.16 12.64,-4.67 13.88,-4.81 17.31,-1.79 11.55,10.86 41.36,12.64 60.59,3.85 11.41,-5.22 18,-10.58 48.64,-39.29 49.87,-46.85 55.23,-51.66 61.41,-54.96 7.83,-4.12 10.58,-3.16 10.58,4.12 0,9.35 -3.02,13.88 -18.68,28.31 -49.74,45.61 -56.06,54.13 -53.45,71.58 1.1,7.42 3.16,8.38 10.72,5.08 6.59,-2.89 8.38,-4.67 33.25,-32.84 9.89,-11.4 23.35,-25 29.67,-30.36 17.18,-14.56 39.43,-30.78 47.27,-34.35 7.83,-3.71 16.9,-4.39 17.99,-1.37 1.1,2.75 -0.68,5.63 -11.81,18.82 -21.43,25.14 -28.44,47.26 -20.47,63.75 4.67,9.76 9.48,11.95 24.59,11.13 11.27,-0.55 23.91,-2.89 26.79,-4.95 0.83,-0.55 3.02,-1.37 5.22,-1.92 2.06,-0.55 6.19,-3.16 9.21,-5.77l5.49 -4.95 7.7 7.01c7.42,6.87 7.83,7.01 16.07,7.01 16.76,0 33.8,-6.32 47.54,-17.31 7.01,-5.64 8.52,-4.95 11.27,4.53 1.51,5.77 2.33,6.59 8.24,9.07 4.4,1.92 6.18,3.3 5.36,4.26 -0.83,1.1 3.43,1.51 14.15,1.51 13.88,-0.14 16.07,-0.41 22.39,-3.71 8.38,-4.4 22.54,-19.24 22.54,-23.5 -0.14,-2.74 -0.28,-2.88 -1.93,-0.68 -3.02,3.98 -17.45,11.95 -26.79,14.84 -13.19,4.12 -26.65,3.43 -19.1,-0.97 2.89,-1.64 2.61,-1.78 -3.29,-1.09l-6.6 0.82 0 -4.67c0,-2.75 1.79,-7.42 4.67,-12.09 2.48,-4.12 9.89,-15.94 16.35,-26.52 6.6,-10.44 12.23,-21.16 12.78,-23.63 1.65,-9.2 -2.34,-11.54 -8.79,-5.08 -5.91,6.18 -12.92,11.4 -14.84,11.4 -1.1,0 -1.93,-1.51 -1.93,-3.57 0,-5.22 -4.67,-11.95 -10.02,-14.98 -3.99,-2.06 -6.6,-2.33 -16.9,-1.65 -18.55,1.38 -32.15,6.46 -46.99,17.87 -11.68,8.93 -25.14,29.95 -30.5,47.67 -2.2,7.01 -2.89,7.83 -10.44,11.95 -8.52,4.67 -23.5,8.66 -32.15,8.66 -2.89,0 -8.11,-1.24 -11.68,-2.75l-6.46 -2.75 0.55 -8.79c0.55,-9.48 3.57,-15.52 18.27,-36 8.25,-11.4 14.43,-25.69 14.43,-33.25 0,-5.9 -3.02,-9.89 -9.89,-13.46 -9.62,-4.95 -29.13,1.92 -48.09,17.04 -14.01,11.13 -15.52,11.13 -11.4,-0.42 2.06,-5.63 2.74,-17.99 1.23,-21.84 -1.37,-3.71 -12.36,-2.75 -21.84,1.79 -10.17,4.8 -13.6,7.69 -48.78,40.66 -40.66,38.06 -40.94,38.34 -52.34,42.59 -5.64,2.07 -15.39,6.32 -21.85,9.35 -8.51,3.98 -14.01,5.63 -20.19,6.18 -8.38,0.55 -8.8,0.41 -13.47,-4.26 -6.87,-6.87 -6.45,-10.58 1.79,-14.43 15.39,-7.28 49.73,-37.09 54.27,-47.26 4.26,-9.2 4.39,-12.91 0.55,-16.76 -6.18,-6.04 -18.69,-4.81 -40.26,4.26 -9.75,4.12 -13.88,6.73 -20.61,13.46 -11.4,11.27 -14.84,20.06 -13.87,36.41 0.27,6.46 0.96,12.64 1.51,13.88 2.2,5.08 -25.14,12.09 -39.85,10.17 -8.38,-0.97 -10.85,-3.3 -10.71,-10.17 0,-7.56 4.12,-14.43 15.94,-27.2 5.9,-6.46 12.36,-14.57 14.15,-18.14 6.73,-13.33 9.48,-31.46 5.9,-39.57 -3.98,-9.07 -7.69,-7.97 -14.83,4.67l0 0zm417.94 23.77c3.43,4.26 3.16,5.63 -3.02,13.88 -3.85,5.08 -5.5,8.79 -5.5,11.81 0,3.71 -1.78,6.32 -9.89,14.84 -8.24,8.79 -11.95,11.54 -23.63,17.17 -16.76,8.38 -33.11,11.82 -42.59,9.07 -7.56,-2.2 -7.84,-5.49 -1.38,-15.52 6.05,-9.35 30.5,-33.94 43.28,-43.56 12.92,-9.75 19.37,-11.95 32.15,-11.12 6.32,0.41 8.79,1.09 10.58,3.43l0 0zm-330.15 7.28c-1.51,1.1 -28.17,22.67 -31.33,25.28 -3.84,3.3 -7,3.99 -7,1.65 0,-3.98 12.91,-18.82 20.33,-23.49 6.18,-3.71 15.8,-6.6 17.31,-5.09 0.69,0.69 1.1,1.38 0.69,1.65l0 0zm96.31 38.06c0,4.53 -30.36,38.47 -34.49,38.47 -0.68,0 -1.23,-1.38 -1.23,-3.16 0,-2.06 5.63,-8.79 17.17,-20.61 9.34,-9.62 17.45,-17.45 17.86,-17.45 0.42,0 0.69,1.24 0.69,2.75z"/>
    <path  fill-rule="nonzero" d="M906 490c0.82,0.96 2.34,1.37 3.43,0.96 2.75,-0.96 2.48,-1.38 -1.51,-2.06 -2.75,-0.55 -3.16,-0.28 -1.92,1.1l0 0z"/>
    <path  fill-rule="nonzero" d="M276.61 498.24c-17.86,4.81 -32.28,16.21 -51.24,40.8 -1.65,2.06 -3.85,4.68 -4.68,5.77 -0.96,0.97 -1.78,2.75 -1.78,3.85 0,1.1 -0.96,2.75 -2.06,3.71 -1.24,0.96 -2.06,2.75 -1.79,3.99 0.14,1.23 -0.41,3.57 -1.37,5.22 -0.96,1.65 -1.38,3.84 -0.96,4.8 0.27,0.97 1.23,4.4 2.06,7.56 2.19,8.52 8.93,12.78 19.92,12.78 11.13,0 20.06,-2.61 37.78,-10.99 18,-8.52 21.02,-8.52 22.12,-0.41 0.96,7.28 2.75,9.34 10.44,11.95 22.67,7.69 43.69,1.51 56.74,-16.62 6.46,-9.07 7.01,-11.41 1.79,-7.42 -18.27,14.01 -29.13,18.82 -40.67,17.58 -12.77,-1.23 -16.21,-9.48 -10.3,-25.28 3.43,-9.48 6.59,-15.25 12.91,-24.18 2.61,-3.57 4.67,-6.87 4.67,-7.28 0,-0.55 3.16,-4.81 6.87,-9.62 6.32,-8.1 8.8,-14.29 5.5,-14.29 -1.79,0 -17.04,13.19 -35.86,31.19 -8.65,8.11 -19.65,18.69 -24.59,23.36 -10.17,9.61 -18.27,13.74 -35.59,18.13 -17.72,4.4 -22.66,3.71 -22.39,-3.57 0.27,-7.83 4.67,-14.7 18.55,-28.58 16.76,-16.62 30.64,-27.2 40.53,-30.91 7.69,-2.88 22.8,-3.71 24.32,-1.37 1.1,1.65 6.18,1.78 6.18,0.13 0,-3.02 -9.89,-9.61 -16.49,-10.99 -8.79,-1.92 -11.26,-1.78 -20.61,0.69l0 0z"/>
    <path  fill-rule="nonzero" d="M771.22 507.86c-6.87,5.63 -16.63,14.15 -21.71,18.96 -5.08,4.67 -16.9,15.25 -26.38,23.49 -9.48,8.24 -18.13,16.21 -19.37,17.72 -2.34,2.75 -2.06,6.32 0.41,6.32 0.69,0 8.8,-7 18,-15.52 21.43,-19.65 63.75,-61.42 62.51,-61.42 -0.55,0 -6.59,4.68 -13.46,10.45l0 0z"/>
    <path  fill-rule="nonzero" d="M142.66 531.76c-0.42,0.83 0.13,0.96 1.23,0.55 2.48,-0.96 2.89,-1.92 0.96,-1.92 -0.82,0 -1.78,0.55 -2.19,1.37z"/>
    <path  fill-rule="nonzero" d="M1774.74 581.89c0.53,-0.34 0.21,-0.47 -0.84,-0.39l0.84 0.39z"/>
    <path  fill-rule="nonzero" d="M1715.3 594c-0.62,0 -3.53,0 -3.97,0.26 1.35,-0.07 2.68,-0.16 3.97,-0.26z"/>
    <path  fill-rule="nonzero" d="M1346.61 598.67c0.96,0.41 2.2,0.28 2.61,-0.14 0.55,-0.41 -0.27,-0.82 -1.78,-0.68 -1.52,0 -1.93,0.41 -0.83,0.82z"/>
   </g>
   <path id="Sobrero"  d="M829.1 195.29l-2.02 2.4c-5.39,5.59 -22.15,5.23 -29.21,5.37 -28.84,0.56 -37.09,5.07 -58.68,8.05l-54.54 10c-9.56,1.97 -19.86,2.76 -29.32,5.1 -12.84,3.17 -11.74,4.98 -27.86,5.07 -13.53,0.08 -18.49,3.5 -30.33,5.44 -10.08,1.65 -19.08,2.36 -29.04,4.01l-137.32 31.82c-1.62,0.33 -9.82,1.63 -12.73,2.35 -9.14,2.26 -29.06,11.95 -40.01,12.14l12.26 3.25c12.87,1.38 12.97,1.49 25.81,-1.2 11.67,-2.45 32.39,-2.57 45.4,-3.56 14.98,-1.13 27.88,-4.91 41.85,-4.38 16.53,0.62 28.74,0.42 45.8,-0.99 14.39,-1.18 29.32,-1.91 44.08,-2.76 13.23,-0.76 11.86,-2.53 31.46,-3.15 2.3,-0.07 3.32,-0.04 5.62,-0.47 25.39,-4.65 25.43,-1.63 52.05,-2.13 16.46,-0.3 29.82,-3.97 46.19,-3.95 29.57,0.05 59.5,-6.19 89.52,-5.55l91.87 -5.15c30.94,-2.38 60.57,-2.7 91.52,-3.47l72.2 -1.43c10.8,-0.02 19.53,-1.71 24.54,3.74l1.86 -1.02c24.69,-5.98 164.29,5.76 201.59,8.02 34.48,2.08 106.63,7.81 140.32,14.76 15.72,3.24 32.32,1.11 44.64,3.7 1.66,-4.21 -1.82,-0.16 3.34,-3.44 3.88,-2.48 1.5,1.63 1.59,-1.77 -4.76,-6.44 -14.59,-2.55 -23.24,-4.56 -4.82,-1.12 -2.31,-1.43 -9.23,-2.47 -15.45,-2.32 -24.41,-6.29 -32.16,-7.6 -31.5,-5.3 -86.51,-14.08 -115.02,-16.72 -14.5,-1.35 -57.32,-5.3 -69.73,-9.06 -7.53,-2.27 -58.68,-3.39 -72.26,-5.13 -58.54,-7.5 -49.12,-3.86 -100.52,-3.06 -17.3,0.27 -32.93,-1.21 -50.59,-1.23 -35.05,-0.04 -68.94,-0.51 -103.96,0.48 -17.44,0.49 -36.32,-2.1 -53.43,-1.56 -17.6,0.57 -32.47,1.7 -49.19,2.79 -7.54,0.49 -6.57,1.26 -10.56,3.35 -3.65,1.92 -4.56,2.46 -10.14,1 -6.38,-1.68 -1.35,-2.53 -10.27,-1.55l-21.86 1.24c-4.8,1.86 -3.3,6.53 -20.77,4.87 -6.16,-0.59 -5.48,-2.25 -7.59,-2.44 19.1,-3.8 35.63,-2.9 54.01,-6.65 15.46,-3.16 40.62,1.66 54.99,-4.46l-30.16 0.72c5.58,-6.45 26.36,-7.05 35.09,-7.68 25.77,-1.86 81.61,-9.41 107.58,-12.93 54.19,-7.34 98.33,6.46 150,-13.71 0.19,-5.75 2.67,-5.78 -2.55,-11.57 -8.39,-9.29 -31.62,-10.47 -43.71,-10.1 -35.24,1.07 -194.7,10.88 -205.81,4.18 -0.1,-11.69 16.24,-13.94 27.35,-16.68 2.21,-5.53 -3.37,-2.02 5.41,-4.91l93.81 -15.38c25.49,-8.66 27.83,-3.74 49.64,-9.59 9.2,-2.46 14.71,-1.48 22.88,-5.89 9.89,-5.34 12.12,-3.43 12.66,-16.56 -7.7,-4.52 -17.39,-4.23 -27.46,-2.15 -5.6,1.15 -8.57,3.02 -12.44,4.19 -5.01,1.5 -9.37,0.91 -14.47,1.9 -18.09,3.49 -27.65,9.54 -53.97,11.56 -20.14,1.56 -39.06,7.33 -56.78,11.3 -4.02,0.9 -9.17,1.5 -14.48,2.71 -2.5,0.57 -7.81,2.28 -12.53,3.17 -20.75,3.89 -12.18,6.65 -24.56,5.34 -2.08,-3 -0.36,0.05 -2.37,-3.25 -4.03,-6.62 -1.53,-8.06 -6.29,-14.22 -14.22,-0.76 -26,12.63 -8.77,25.96 -3.07,4.77 -0.26,0.67 -1.65,5.85l-0.95 3.28c-0.04,0.12 -1.6,3.68 -1.61,3.7 -2.3,5.19 2.49,1.15 -0.95,2.04 -14.44,7.91 -15.4,1.55 -30.06,7.39 0.61,4.48 1.27,5.81 1.26,11.28 25.29,1.81 12.92,5.02 22.37,7.03 9.81,2.1 12.21,-3.3 12.59,4.98zm10.93 28.04c-14.37,6.12 -39.53,1.3 -54.99,4.46 -18.38,3.75 -34.91,2.85 -54.01,6.65 2.11,0.19 1.43,1.85 7.59,2.44 17.47,1.66 15.97,-3.01 20.77,-4.87l21.86 -1.24c8.92,-0.98 3.89,-0.13 10.27,1.55 5.58,1.46 6.49,0.92 10.14,-1 3.99,-2.09 3.02,-2.86 10.56,-3.35 16.72,-1.09 31.59,-2.22 49.19,-2.79 17.11,-0.54 35.99,2.05 53.43,1.56 35.02,-0.99 68.91,-0.52 103.96,-0.48 17.66,0.02 33.29,1.5 50.59,1.23 51.4,-0.8 41.98,-4.44 100.52,3.06 13.58,1.74 64.73,2.86 72.26,5.13 12.41,3.76 55.23,7.71 69.73,9.06 28.51,2.64 83.52,11.42 115.02,16.72 7.75,1.31 16.71,5.28 32.16,7.6 6.92,1.04 4.41,1.35 9.23,2.47 8.65,2.01 18.48,-1.88 23.24,4.56 -0.09,3.4 2.29,-0.71 -1.59,1.77 -5.16,3.28 -1.68,-0.77 -3.34,3.44 -12.32,-2.59 -28.92,-0.46 -44.64,-3.7 -33.69,-6.95 -105.84,-12.68 -140.32,-14.76 -37.3,-2.26 -176.9,-14 -201.59,-8.02 4.7,2.81 10.18,2.26 16.92,2.32l116.26 4.47c43.08,2.72 85.78,6.61 127.8,9.59 38.06,2.71 142.13,15.44 183.08,22.66 15.58,2.75 44.14,7.86 59.85,8.86 -3.69,-2.61 -7.63,-3.39 -12.07,-4.2l-47.32 -13.48c-3.07,-0.92 -4,-1.31 -7.59,-2.17 -5.79,-1.37 -5.66,-0.83 -9.33,-3.78 -3.75,0.82 -86.84,-18.54 -100.53,-21.11 -35.04,-6.57 -68.57,-11.39 -104.76,-16.51 -68.78,-9.73 -151.41,-18.33 -221.28,-19.29 -43.74,-0.55 -87.76,-2.92 -131.39,-2.66 -42.77,0.25 -86.85,2.66 -129.68,3.81zm103.14 -162.64c9.01,0.31 45,-3.89 53.45,-6.52 5.17,-1.61 5.48,-2.62 10.75,-4.08 4.49,-1.25 7.58,-1.75 11.54,-2.88 20.68,-5.86 10.56,-2.19 23.64,-5.13 15.26,-3.43 28.41,-9.76 47.35,-5.49l32.2 10.84c21.62,9.67 40.65,14.82 52.23,20.33 17.22,8.21 117.77,47.45 127.42,42.95l-1.63 -1.22c-10.79,-7.48 -7.76,-4.68 -18.89,-9.88 -4.23,-1.98 -7.17,-3.12 -10.25,-5.68 -2.62,-2.16 -2.08,-2.13 -5.05,-4 -1.84,-1.16 -3.25,-1.85 -4.48,-2.61 -19.96,-12.42 -63.96,-30.63 -86.49,-38.53 -14.31,-5.01 -28.72,-13.91 -42.32,-19.48l-34.19 -11.99c-0.32,-0.12 -0.68,-0.3 -1,-0.42 -3.13,-1.19 -7.9,-1.8 -12.62,-0.85l-48.8 13.01c-8.82,2.54 -15.93,3.68 -25.45,6.12 -10.5,2.69 -31.53,13.15 -45.9,16.15 -5.97,1.25 -17.6,5 -21.51,9.36zm155.04 195.15c-5.01,-5.45 -13.74,-3.76 -24.54,-3.74l-72.2 1.43c-30.95,0.77 -60.58,1.09 -91.52,3.47l-91.87 5.15c-30.02,-0.64 -59.95,5.6 -89.52,5.55 -16.37,-0.02 -29.73,3.65 -46.19,3.95 -26.62,0.5 -26.66,-2.52 -52.05,2.13 -2.3,0.43 -3.32,0.4 -5.62,0.47 -19.6,0.62 -18.23,2.39 -31.46,3.15 -14.76,0.85 -29.69,1.58 -44.08,2.76 -17.06,1.41 -29.27,1.61 -45.8,0.99 -13.97,-0.53 -26.87,3.25 -41.85,4.38 -13.01,0.99 -33.73,1.11 -45.4,3.56 -12.84,2.69 -12.94,2.58 -25.81,1.2l-12.26 -3.25c10.95,-0.19 30.87,-9.88 40.01,-12.14 2.91,-0.72 11.11,-2.02 12.73,-2.35l137.32 -31.82c9.96,-1.65 18.96,-2.36 29.04,-4.01 11.84,-1.94 16.8,-5.36 30.33,-5.44 16.12,-0.09 15.02,-1.9 27.86,-5.07 9.46,-2.34 19.76,-3.13 29.32,-5.1l54.54 -10c21.59,-2.98 29.84,-7.49 58.68,-8.05 7.06,-0.14 23.82,0.22 29.21,-5.37 -85.18,4.95 -173.07,21.09 -253.62,37.51 -38.65,7.88 -167.01,35.79 -204.22,50.05 -5.92,2.27 -7.81,3.6 -12.45,6.46 -11.02,6.8 -7.74,2.61 -9.7,7.95 12.04,0.67 33.22,-3.13 46.61,-4.13 108.39,-8.04 213.84,-16.73 323.31,-22.95 125.79,-7.13 253.32,-19.15 381.2,-16.74zm-155.04 -195.15c3.91,-4.36 15.54,-8.11 21.51,-9.36 14.37,-3 35.4,-13.46 45.9,-16.15 9.52,-2.44 16.63,-3.58 25.45,-6.12l48.8 -13.01c4.72,-0.95 9.49,-0.34 12.62,0.85 0.32,0.12 0.68,0.3 1,0.42l34.19 11.99c13.6,5.57 28.01,14.47 42.32,19.48 22.53,7.9 66.53,26.11 86.49,38.53 1.23,0.76 2.64,1.45 4.48,2.61 2.97,1.87 2.43,1.84 5.05,4 3.08,2.56 6.02,3.7 10.25,5.68 11.13,5.2 8.1,2.4 18.89,9.88l1.63 1.22c-9.65,4.5 -110.2,-34.74 -127.42,-42.95 -11.58,-5.51 -30.61,-10.66 -52.23,-20.33l-32.2 -10.84c-18.94,-4.27 -32.09,2.06 -47.35,5.49 -13.08,2.94 -2.96,-0.73 -23.64,5.13 -3.96,1.13 -7.05,1.63 -11.54,2.88 -5.27,1.46 -5.58,2.47 -10.75,4.08 -8.45,2.63 -44.44,6.83 -53.45,6.52zm-77.69 25.76c10.43,-0.07 23.92,-4.64 33.98,-7.04l99.63 -22.69c21.7,-5.66 44.72,-10.34 67.13,-15.43 26.07,-5.91 30.82,1.62 63,14.12 51,19.81 126.35,48.53 178.68,66.58 10.79,3.72 18.91,6.78 30.37,10.25 10.32,3.11 21.44,8.77 32.03,10.38 -2.32,-5.44 0.48,-1.72 -5.58,-5.6 -30.43,-19.43 -78.49,-43.01 -109.69,-57.56 -40.27,-18.79 -78.78,-38.33 -122.54,-55.05 -31.31,-11.96 -33.41,-15.92 -68.62,-7.19 -48.37,11.98 -123.14,34.18 -168.38,53.93 -5.67,2.48 -8.93,3.95 -14.89,6.65l-11.71 5.7c-4.68,3.12 -1.25,0.56 -3.41,2.95zm-36.38 108.84c-0.38,-8.28 -2.78,-2.88 -12.59,-4.98 -9.45,-2.01 2.92,-5.22 -22.37,-7.03 0.01,-5.47 -0.65,-6.8 -1.26,-11.28 14.66,-5.84 15.62,0.52 30.06,-7.39 3.44,-0.89 -1.35,3.15 0.95,-2.04 0.01,-0.02 1.57,-3.58 1.61,-3.7l0.95 -3.28c1.39,-5.18 -1.42,-1.08 1.65,-5.85 -17.23,-13.33 -5.45,-26.72 8.77,-25.96 4.76,6.16 2.26,7.6 6.29,14.22 2.01,3.3 0.29,0.25 2.37,3.25 12.38,1.31 3.81,-1.45 24.56,-5.34 4.72,-0.89 10.03,-2.6 12.53,-3.17 5.31,-1.21 10.46,-1.81 14.48,-2.71 17.72,-3.97 36.64,-9.74 56.78,-11.3 26.32,-2.02 35.88,-8.07 53.97,-11.56 5.1,-0.99 9.46,-0.4 14.47,-1.9 3.87,-1.17 6.84,-3.04 12.44,-4.19 10.07,-2.08 19.76,-2.37 27.46,2.15 -0.54,13.13 -2.77,11.22 -12.66,16.56 -8.17,4.41 -13.68,3.43 -22.88,5.89 -21.81,5.85 -24.15,0.93 -49.64,9.59l-93.81 15.38c-8.78,2.89 -3.2,-0.62 -5.41,4.91 23.17,-2.47 130.54,-20.58 158.7,-26.85 15.89,-3.53 37.28,-7.38 33.71,-26.66 -10.78,-21.01 -105.7,13.25 -128.85,12.17 -4.23,4 -40.06,9.57 -48.77,11.48 -16.64,3.66 -34.82,9.94 -51.65,6.88 6.71,-13.96 92.92,-39.79 116.02,-44.39l40.76 -12.68c-0.24,-0.04 -0.7,-0.16 -0.98,-0.19l-11.56 2.05c-32.12,7.55 -68.3,12.7 -100.13,20.93 -11.47,2.97 -89.22,24.07 -70.65,47.82 4.23,5.41 6.69,1.83 9.49,7.85 -2.31,2.69 0.36,0.29 -2.19,2.09 -3.41,2.4 -16.68,5.53 -22.5,7.77 -49.41,19.03 3.24,28.74 29.88,31.46zm10.93 28.04c42.83,-1.15 86.91,-3.56 129.68,-3.81 43.63,-0.26 87.65,2.11 131.39,2.66 -2.04,-1.73 -1.35,-1.69 -5.06,-3.06l-16.59 -1.15c-7.7,-0.12 -15.44,-0.02 -23.14,-0.19 -26.91,-0.61 -122.01,1.56 -131.6,-3.09l5.76 -1.98c13.51,-3.24 7.31,-2.88 13.68,-4.77 20.7,-6.14 88.83,-0.6 120.41,-4.9 7.6,-1.03 13.92,-2.13 21.03,-3.34 9.32,-1.59 12.96,-0.8 16.95,-9.97 -51.67,20.17 -95.81,6.37 -150,13.71 -25.97,3.52 -81.81,11.07 -107.58,12.93 -8.73,0.63 -29.51,1.23 -35.09,7.68l30.16 -0.72zm101.35 -109.11c-5.92,-1.28 -39.81,5.26 -44.04,5.17 -2.76,-5.1 -0.06,-3.17 -4.31,-7.24 1.1,-0.84 0.88,-0.82 2.77,-1.78 7.11,-3.61 7.41,-0.98 11.46,-2.01 4.19,-1.07 0.22,0.05 2.52,-1.27 3.22,-1.83 -0.25,-2.64 13.72,-2.71l0 -2.53c7.48,-0.47 8.41,0.77 14.44,0.7 1.52,-5.2 -4.84,-4.04 7.28,-6.33 6.64,-1.25 9.35,-2.1 11.76,-8.03 -23.1,4.6 -109.31,30.43 -116.02,44.39 16.83,3.06 35.01,-3.22 51.65,-6.88 8.71,-1.91 44.54,-7.48 48.77,-11.48zm650.53 184.3c-1.01,-5.52 -1.59,-5.72 -2.04,-12.51 -13.35,-1.06 -49.56,-7.98 -62.2,-6.92 3.67,2.95 3.54,2.41 9.33,3.78 3.59,0.86 4.52,1.25 7.59,2.17l47.32 13.48z"/>
  </g>
 </g>
</svg>
